EulerText-Bold.ufo
<glyph name="numbersign" format="2">
  <advance width="778"/>
  <unicode hex="0023"/>
  <outline>
    <contour>
      <point x="95" y="508" type="line"/>
      <point x="103" y="517" type="line"/>
      <point x="756" y="517" type="line"/>
      <point x="763" y="470" type="line"/>
      <point x="752" y="461" type="line"/>
      <point x="108" y="461" type="line"/>
      <point x="101" y="472" type="line"/>
    </contour>
    <contour>
      <point x="12" y="258" type="line"/>
      <point x="20" y="267" type="line"/>
      <point x="694" y="267" type="line"/>
      <point x="701" y="220" type="line"/>
      <point x="690" y="211" type="line"/>
      <point x="25" y="211" type="line"/>
      <point x="18" y="222" type="line"/>
    </contour>
    <contour>
      <point x="641" y="714" type="line"/>
      <point x="648" y="704" type="line"/>
      <point x="450" y="-3" type="line"/>
      <point x="403" y="2" type="line"/>
      <point x="398" y="16" type="line"/>
      <point x="594" y="715" type="line"/>
      <point x="605" y="718" type="line"/>
    </contour>
    <contour>
      <point x="391" y="714" type="line"/>
      <point x="398" y="704" type="line"/>
      <point x="200" y="-3" type="line"/>
      <point x="153" y="2" type="line"/>
      <point x="148" y="16" type="line"/>
      <point x="344" y="715" type="line"/>
      <point x="355" y="718" type="line"/>
    </contour>
  </outline>
</glyph>
<glyph name="quotesingle" format="2">
  <advance width="222"/>
  <unicode hex="0027"/>
  <outline>
    <contour>
      <point x="98" y="436" type="line"/>
      <point x="76" y="629" type="line" smooth="yes"/>
      <point x="75" y="641"/>
      <point x="74" y="653"/>
      <point x="74" y="666" type="curve" smooth="yes"/>
      <point x="74" y="685"/>
      <point x="96" y="695"/>
      <point x="117" y="695" type="curve" smooth="yes"/>
      <point x="140" y="695"/>
      <point x="153" y="682"/>
      <point x="153" y="662" type="curve" smooth="yes"/>
      <point x="153" y="651"/>
      <point x="150" y="635"/>
      <point x="148" y="622" type="curve" smooth="yes"/>
      <point x="117" y="436" type="line"/>
    </contour>
  </outline>
</glyph>
<glyph name="parenleft" format="2">
  <advance width="286"/>
  <unicode hex="0028"/>
  <outline>
    <contour>
      <point x="271" y="-172" type="curve"/>
      <point x="271" y="-186" type="line"/>
      <point x="151" y="-169"/>
      <point x="100" y="-58"/>
      <point x="79" y="38" type="curve" smooth="yes"/>
      <point x="62" y="118"/>
      <point x="58" y="199"/>
      <point x="58" y="280" type="curve" smooth="yes"/>
      <point x="58" y="357"/>
      <point x="63" y="435"/>
      <point x="81" y="510" type="curve" smooth="yes"/>
      <point x="104" y="606"/>
      <point x="149" y="706"/>
      <point x="271" y="738" type="curve"/>
      <point x="271" y="719" type="line"/>
      <point x="129" y="657"/>
      <point x="118" y="430"/>
      <point x="118" y="274" type="curve" smooth="yes"/>
      <point x="118" y="188"/>
      <point x="122" y="102"/>
      <point x="139" y="18" type="curve" smooth="yes"/>
      <point x="152" y="-45"/>
      <point x="185" y="-151"/>
    </contour>
  </outline>
</glyph>
<glyph name="parenright" format="2">
  <advance width="295"/>
  <unicode hex="0029"/>
  <outline>
    <contour>
      <point x="16" y="715" type="curve"/>
      <point x="16" y="735" type="line"/>
      <point x="211" y="701"/>
      <point x="237" y="438"/>
      <point x="237" y="272" type="curve" smooth="yes"/>
      <point x="237" y="188"/>
      <point x="232" y="103"/>
      <point x="213" y="20" type="curve" smooth="yes"/>
      <point x="191" y="-75"/>
      <point x="152" y="-164"/>
      <point x="16" y="-187" type="curve"/>
      <point x="16" y="-171" type="line"/>
      <point x="70" y="-152"/>
      <point x="115" y="-130"/>
      <point x="138" y="-69" type="curve" smooth="yes"/>
      <point x="177" y="34"/>
      <point x="175" y="162"/>
      <point x="175" y="276" type="curve" smooth="yes"/>
      <point x="175" y="355"/>
      <point x="170" y="434"/>
      <point x="152" y="511" type="curve" smooth="yes"/>
      <point x="134" y="588"/>
      <point x="105" y="678"/>
    </contour>
  </outline>
</glyph>
<glyph name="asterisk" format="2">
  <advance width="338"/>
  <unicode hex="002A"/>
  <outline>
    <contour>
      <point x="198" y="449" type="curve"/>
      <point x="150" y="449" type="line"/>
      <point x="157" y="494"/>
      <point x="159" y="506"/>
      <point x="160" y="557" type="curve"/>
      <point x="128" y="534"/>
      <point x="100" y="514"/>
      <point x="70" y="481" type="curve"/>
      <point x="46" y="521" type="line"/>
      <point x="81" y="536"/>
      <point x="114" y="553"/>
      <point x="145" y="574" type="curve"/>
      <point x="107" y="601"/>
      <point x="73" y="618"/>
      <point x="50" y="629" type="curve"/>
      <point x="78" y="662" type="line"/>
      <point x="104" y="638"/>
      <point x="136" y="614"/>
      <point x="159" y="598" type="curve"/>
      <point x="159" y="637"/>
      <point x="159" y="662"/>
      <point x="150" y="702" type="curve"/>
      <point x="198" y="702" type="line"/>
      <point x="189" y="663"/>
      <point x="187" y="642"/>
      <point x="184" y="602" type="curve"/>
      <point x="215" y="624"/>
      <point x="237" y="640"/>
      <point x="260" y="665" type="curve"/>
      <point x="290" y="628" type="line"/>
      <point x="262" y="616"/>
      <point x="225" y="601"/>
      <point x="190" y="578" type="curve"/>
      <point x="227" y="549"/>
      <point x="260" y="536"/>
      <point x="292" y="524" type="curve"/>
      <point x="260" y="488" type="line"/>
      <point x="241" y="508"/>
      <point x="216" y="526"/>
      <point x="184" y="548" type="curve"/>
      <point x="186" y="506"/>
      <point x="188" y="492"/>
    </contour>
  </outline>
</glyph>
<glyph name="plus" format="2">
  <advance width="877"/>
  <unicode hex="002B"/>
  <outline>
    <contour>
      <point x="464" y="288" type="line"/>
      <point x="829" y="288" type="line"/>
      <point x="813" y="238" type="line"/>
      <point x="464" y="238" type="line"/>
      <point x="464" y="-64" type="line"/>
      <point x="414" y="-83" type="line"/>
      <point x="414" y="238" type="line"/>
      <point x="48" y="238" type="line"/>
      <point x="65" y="288" type="line"/>
      <point x="414" y="288" type="line"/>
      <point x="414" y="584" type="line"/>
      <point x="464" y="598" type="line"/>
    </contour>
  </outline>
</glyph>
<glyph name="comma" format="2">
  <advance width="239"/>
  <unicode hex="002C"/>
  <outline>
    <contour>
      <point x="83" y="-192" type="curve"/>
      <point x="63" y="-173" type="line"/>
      <point x="93" y="-138"/>
      <point x="122" y="-100"/>
      <point x="122" y="-61" type="curve" smooth="yes"/>
      <point x="122" y="-46"/>
      <point x="118" y="-31"/>
      <point x="108" y="-19" type="curve" smooth="yes"/>
      <point x="54" y="42" type="line"/>
      <point x="47" y="52"/>
      <point x="44" y="64"/>
      <point x="44" y="76" type="curve" smooth="yes"/>
      <point x="44" y="100"/>
      <point x="72" y="124"/>
      <point x="103" y="124" type="curve" smooth="yes"/>
      <point x="139" y="124"/>
      <point x="186" y="15"/>
      <point x="186" y="-27" type="curve" smooth="yes"/>
      <point x="186" y="-83"/>
      <point x="127" y="-145"/>
    </contour>
  </outline>
</glyph>
<glyph name="hyphen" format="2">
  <advance width="385"/>
  <unicode hex="002D"/>
  <outline>
    <contour>
      <point x="317" y="231" type="line"/>
      <point x="51" y="231" type="line"/>
      <point x="70" y="281" type="line"/>
      <point x="333" y="281" type="line"/>
    </contour>
  </outline>
</glyph>
<glyph name="period" format="2">
  <advance width="280"/>
  <unicode hex="002E"/>
  <outline>
    <contour>
      <point x="69" y="56" type="curve" smooth="yes"/>
      <point x="69" y="95"/>
      <point x="101" y="127"/>
      <point x="140" y="127" type="curve" smooth="yes"/>
      <point x="178" y="127"/>
      <point x="210" y="95"/>
      <point x="210" y="56" type="curve" smooth="yes"/>
      <point x="210" y="18"/>
      <point x="178" y="-14"/>
      <point x="140" y="-14" type="curve" smooth="yes"/>
      <point x="101" y="-14"/>
      <point x="69" y="18"/>
    </contour>
  </outline>
</glyph>
<glyph name="slash" format="2">
  <advance width="415"/>
  <unicode hex="002F"/>
  <outline>
    <contour>
      <point x="422" y="711" type="line"/>
      <point x="427" y="700" type="line"/>
      <point x="38" y="-196" type="line"/>
      <point x="-8" y="-184" type="line"/>
      <point x="-11" y="-170" type="line"/>
      <point x="375" y="718" type="line"/>
      <point x="386" y="720" type="line"/>
    </contour>
  </outline>
</glyph>
<glyph name="one" format="2">
  <advance width="550"/>
  <unicode hex="0031"/>
  <outline>
    <contour>
      <point x="70" y="626" type="line"/>
      <point x="341" y="715" type="line"/>
      <point x="357" y="697" type="line"/>
      <point x="346" y="560"/>
      <point x="342" y="422"/>
      <point x="342" y="284" type="curve" smooth="yes"/>
      <point x="342" y="200"/>
      <point x="342" y="96"/>
      <point x="345" y="32" type="curve"/>
      <point x="238" y="-9" type="line"/>
      <point x="217" y="5" type="line"/>
      <point x="230" y="123"/>
      <point x="237" y="242"/>
      <point x="237" y="361" type="curve" smooth="yes"/>
      <point x="237" y="428"/>
      <point x="236" y="494"/>
      <point x="231" y="561" type="curve" smooth="yes"/>
      <point x="230" y="578"/>
      <point x="215" y="594"/>
      <point x="198" y="594" type="curve" smooth="yes"/>
      <point x="70" y="594" type="line"/>
    </contour>
  </outline>
</glyph>
<glyph name="three" format="2">
  <advance width="550"/>
  <unicode hex="0033"/>
  <outline>
    <contour>
      <point x="281" y="391" type="curve"/>
      <point x="281" y="384" type="line"/>
      <point x="420" y="372"/>
      <point x="496" y="319"/>
      <point x="496" y="223" type="curve" smooth="yes"/>
      <point x="496" y="75"/>
      <point x="353" y="-8"/>
      <point x="210" y="-8" type="curve" smooth="yes"/>
      <point x="142" y="-8"/>
      <point x="75" y="12"/>
      <point x="25" y="53" type="curve"/>
      <point x="82" y="160" type="line"/>
      <point x="101" y="158" type="line"/>
      <point x="117" y="102"/>
      <point x="154" y="32"/>
      <point x="217" y="32" type="curve" smooth="yes"/>
      <point x="328" y="32"/>
      <point x="369" y="117"/>
      <point x="369" y="201" type="curve" smooth="yes"/>
      <point x="369" y="332"/>
      <point x="251" y="359"/>
      <point x="133" y="359" type="curve"/>
      <point x="133" y="388" type="line"/>
      <point x="218" y="393"/>
      <point x="338" y="433"/>
      <point x="338" y="542" type="curve" smooth="yes"/>
      <point x="338" y="602"/>
      <point x="293" y="644"/>
      <point x="229" y="644" type="curve" smooth="yes"/>
      <point x="179" y="644"/>
      <point x="132" y="615"/>
      <point x="89" y="588" type="curve"/>
      <point x="72" y="613" type="line"/>
      <point x="135" y="660"/>
      <point x="213" y="708"/>
      <point x="295" y="708" type="curve" smooth="yes"/>
      <point x="376" y="708"/>
      <point x="455" y="663"/>
      <point x="455" y="582" type="curve" smooth="yes"/>
      <point x="455" y="488"/>
      <point x="372" y="425"/>
    </contour>
  </outline>
</glyph>
<glyph name="four" format="2">
  <advance width="550"/>
  <unicode hex="0034"/>
  <outline>
    <contour>
      <point x="413" y="255" type="line"/>
      <point x="515" y="255" type="line"/>
      <point x="519" y="246" type="line"/>
      <point x="490" y="184" type="line"/>
      <point x="413" y="184" type="line"/>
      <point x="406" y="177" type="line"/>
      <point x="406" y="128"/>
      <point x="408" y="80"/>
      <point x="413" y="32" type="curve"/>
      <point x="305" y="-12" type="line"/>
      <point x="291" y="-1" type="line"/>
      <point x="297" y="58"/>
      <point x="301" y="118"/>
      <point x="301" y="178" type="curve"/>
      <point x="294" y="184" type="line"/>
      <point x="2" y="184" type="line"/>
      <point x="2" y="236" type="line"/>
      <point x="301" y="679" type="line"/>
      <point x="406" y="708" type="line"/>
      <point x="406" y="698" type="line"/>
      <point x="406" y="263" type="line"/>
    </contour>
    <contour>
      <point x="301" y="260" type="line"/>
      <point x="301" y="571" type="line"/>
      <point x="295" y="581" type="line"/>
      <point x="290" y="581"/>
      <point x="248" y="529"/>
      <point x="197" y="455" type="curve" smooth="yes"/>
      <point x="96" y="307"/>
      <point x="82" y="265"/>
      <point x="82" y="261" type="curve"/>
      <point x="88" y="255" type="line"/>
      <point x="293" y="255" type="line"/>
    </contour>
  </outline>
</glyph>
<glyph name="semicolon" format="2">
  <advance width="233"/>
  <unicode hex="003B"/>
  <outline>
    <contour>
      <point x="108" y="479" type="curve" smooth="yes"/>
      <point x="148" y="479"/>
      <point x="180" y="447"/>
      <point x="180" y="407" type="curve" smooth="yes"/>
      <point x="180" y="367"/>
      <point x="148" y="334"/>
      <point x="108" y="334" type="curve" smooth="yes"/>
      <point x="68" y="334"/>
      <point x="36" y="367"/>
      <point x="36" y="407" type="curve" smooth="yes"/>
      <point x="36" y="447"/>
      <point x="68" y="479"/>
    </contour>
    <contour>
      <point x="85" y="-217" type="line"/>
      <point x="58" y="-197" type="line"/>
      <point x="61" y="-193" type="line" smooth="yes"/>
      <point x="97" y="-147"/>
      <point x="126" y="-98"/>
      <point x="126" y="-61" type="curve" smooth="yes"/>
      <point x="126" y="-48"/>
      <point x="122" y="-32"/>
      <point x="114" y="-22" type="curve" smooth="yes"/>
      <point x="44" y="61" type="line" smooth="yes"/>
      <point x="37" y="70"/>
      <point x="36" y="87"/>
      <point x="36" y="90" type="curve" smooth="yes"/>
      <point x="36" y="125"/>
      <point x="84" y="143"/>
      <point x="100" y="143" type="curve" smooth="yes"/>
      <point x="111" y="143"/>
      <point x="130" y="134"/>
      <point x="138" y="124" type="curve" smooth="yes"/>
      <point x="156" y="101"/>
      <point x="193" y="25"/>
      <point x="193" y="-27" type="curve" smooth="yes"/>
      <point x="193" y="-79"/>
      <point x="160" y="-129"/>
      <point x="88" y="-214" type="curve"/>
    </contour>
  </outline>
</glyph>
<glyph name="less" format="2">
  <advance width="430"/>
  <unicode hex="003C"/>
  <outline>
    <contour>
      <point x="362" y="443" type="line"/>
      <point x="129" y="252" type="line"/>
      <point x="372" y="29" type="line"/>
      <point x="329" y="-10" type="line"/>
      <point x="52" y="245" type="line"/>
      <point x="337" y="475" type="line"/>
    </contour>
  </outline>
</glyph>
<glyph name="equal" format="2">
  <advance width="734"/>
  <unicode hex="003D"/>
  <outline>
    <contour>
      <point x="625" y="299" type="line"/>
      <point x="98" y="299" type="line"/>
      <point x="109" y="349" type="line"/>
      <point x="635" y="349" type="line"/>
    </contour>
    <contour>
      <point x="625" y="164" type="line"/>
      <point x="98" y="164" type="line"/>
      <point x="109" y="214" type="line"/>
      <point x="635" y="214" type="line"/>
    </contour>
  </outline>
</glyph>
<glyph name="greater" format="2">
  <advance width="405"/>
  <unicode hex="003E"/>
  <outline>
    <contour>
      <point x="353" y="241" type="line"/>
      <point x="98" y="-7" type="line"/>
      <point x="71" y="14" type="line"/>
      <point x="289" y="228" type="line"/>
      <point x="58" y="437" type="line"/>
      <point x="98" y="472" type="line"/>
    </contour>
  </outline>
</glyph>
<glyph name="question" format="2">
  <advance width="432"/>
  <unicode hex="003F"/>
  <outline>
    <contour>
      <point x="156" y="121" type="curve" smooth="yes"/>
      <point x="196" y="121"/>
      <point x="229" y="89"/>
      <point x="229" y="49" type="curve" smooth="yes"/>
      <point x="229" y="9"/>
      <point x="196" y="-24"/>
      <point x="156" y="-24" type="curve" smooth="yes"/>
      <point x="117" y="-24"/>
      <point x="84" y="9"/>
      <point x="84" y="49" type="curve" smooth="yes"/>
      <point x="84" y="89"/>
      <point x="117" y="121"/>
    </contour>
    <contour>
      <point x="140" y="534" type="line"/>
      <point x="62" y="489" type="line"/>
      <point x="33" y="503"/>
      <point x="26" y="526"/>
      <point x="26" y="552" type="curve" smooth="yes"/>
      <point x="26" y="644"/>
      <point x="152" y="699"/>
      <point x="250" y="699" type="curve" smooth="yes"/>
      <point x="333" y="699"/>
      <point x="410" y="654"/>
      <point x="410" y="577" type="curve" smooth="yes"/>
      <point x="410" y="522"/>
      <point x="382" y="475"/>
      <point x="334" y="438" type="curve" smooth="yes"/>
      <point x="204" y="338" type="line" smooth="yes"/>
      <point x="184" y="322"/>
      <point x="167" y="299"/>
      <point x="167" y="275" type="curve" smooth="yes"/>
      <point x="167" y="255"/>
      <point x="177" y="239"/>
      <point x="195" y="224" type="curve"/>
      <point x="195" y="215" type="line"/>
      <point x="125" y="168" type="line"/>
      <point x="91" y="183"/>
      <point x="70" y="207"/>
      <point x="70" y="240" type="curve" smooth="yes"/>
      <point x="70" y="267"/>
      <point x="86" y="293"/>
      <point x="110" y="311" type="curve" smooth="yes"/>
      <point x="230" y="398" type="line" smooth="yes"/>
      <point x="284" y="437"/>
      <point x="299" y="490"/>
      <point x="299" y="549" type="curve" smooth="yes"/>
      <point x="299" y="597"/>
      <point x="254" y="659"/>
      <point x="196" y="659" type="curve" smooth="yes"/>
      <point x="152" y="659"/>
      <point x="108" y="638"/>
      <point x="108" y="591" type="curve" smooth="yes"/>
      <point x="108" y="576"/>
      <point x="116" y="558"/>
      <point x="128" y="546" type="curve" smooth="yes"/>
    </contour>
  </outline>
</glyph>
<glyph name="at" format="2">
  <advance width="744"/>
  <unicode hex="0040"/>
  <outline>
    <contour>
      <point x="456" y="304" type="curve" smooth="yes"/>
      <point x="456" y="341"/>
      <point x="446" y="394"/>
      <point x="385" y="394" type="curve" smooth="yes"/>
      <point x="297" y="394"/>
      <point x="280" y="296"/>
      <point x="280" y="233" type="curve" smooth="yes"/>
      <point x="280" y="185"/>
      <point x="297" y="117"/>
      <point x="360" y="117" type="curve" smooth="yes"/>
      <point x="395" y="117"/>
      <point x="425" y="134"/>
      <point x="449" y="154" type="curve"/>
      <point x="453" y="185"/>
      <point x="456" y="256"/>
    </contour>
    <contour>
      <point x="535" y="418" type="line"/>
      <point x="546" y="411" type="line"/>
      <point x="539" y="347"/>
      <point x="534" y="284"/>
      <point x="534" y="220" type="curve" smooth="yes"/>
      <point x="534" y="157"/>
      <point x="534" y="124"/>
      <point x="559" y="124" type="curve" smooth="yes"/>
      <point x="612" y="124"/>
      <point x="635" y="217"/>
      <point x="638" y="263" type="curve" smooth="yes"/>
      <point x="651" y="440"/>
      <point x="490" y="553"/>
      <point x="321" y="521" type="curve" smooth="yes"/>
      <point x="269" y="511"/>
      <point x="221" y="488"/>
      <point x="180" y="455" type="curve"/>
      <point x="110" y="369"/>
      <point x="80" y="223"/>
      <point x="147" y="107" type="curve" smooth="yes"/>
      <point x="185" y="41"/>
      <point x="258" y="-9"/>
      <point x="349" y="-16" type="curve"/>
      <point x="365" y="-31" type="line"/>
      <point x="315" y="-81" type="line"/>
      <point x="209" y="-73"/>
      <point x="125" y="-2"/>
      <point x="82" y="73" type="curve" smooth="yes"/>
      <point x="25" y="171"/>
      <point x="34" y="293"/>
      <point x="90" y="385" type="curve" smooth="yes"/>
      <point x="143" y="472"/>
      <point x="245" y="565"/>
      <point x="355" y="586" type="curve" smooth="yes"/>
      <point x="531" y="620"/>
      <point x="717" y="483"/>
      <point x="703" y="297" type="curve" smooth="yes"/>
      <point x="698" y="234"/>
      <point x="671" y="181"/>
      <point x="632" y="142" type="curve" smooth="yes"/>
      <point x="604" y="112"/>
      <point x="561" y="64"/>
      <point x="501" y="64" type="curve" smooth="yes"/>
      <point x="467" y="64"/>
      <point x="458" y="88"/>
      <point x="454" y="110" type="curve"/>
      <point x="444" y="114" type="line"/>
      <point x="403" y="87"/>
      <point x="354" y="62"/>
      <point x="302" y="62" type="curve" smooth="yes"/>
      <point x="219" y="62"/>
      <point x="194" y="147"/>
      <point x="194" y="206" type="curve" smooth="yes"/>
      <point x="194" y="352"/>
      <point x="261" y="421"/>
      <point x="379" y="421" type="curve" smooth="yes"/>
      <point x="420" y="421"/>
      <point x="456" y="410"/>
      <point x="490" y="391" type="curve"/>
    </contour>
  </outline>
</glyph>
<glyph name="B" format="2">
  <advance width="644"/>
  <unicode hex="0042"/>
  <outline>
    <contour>
      <point x="388" y="379" type="curve"/>
      <point x="388" y="368" type="line"/>
      <point x="526" y="356"/>
      <point x="608" y="302"/>
      <point x="608" y="207" type="curve" smooth="yes"/>
      <point x="608" y="46"/>
      <point x="458" y="-2"/>
      <point x="312" y="-2" type="curve" smooth="yes"/>
      <point x="68" y="-2" type="line"/>
      <point x="68" y="14" type="line"/>
      <point x="105" y="38"/>
      <point x="104" y="54"/>
      <point x="104" y="84" type="curve" smooth="yes"/>
      <point x="104" y="566" type="line" smooth="yes"/>
      <point x="104" y="621"/>
      <point x="122" y="643"/>
      <point x="7" y="676" type="curve"/>
      <point x="7" y="697" type="line"/>
      <point x="13" y="703" type="line"/>
      <point x="321" y="703" type="line" smooth="yes"/>
      <point x="490" y="703"/>
      <point x="584" y="655"/>
      <point x="584" y="550" type="curve" smooth="yes"/>
      <point x="584" y="449"/>
      <point x="480" y="398"/>
    </contour>
    <contour>
      <point x="229" y="117" type="line" smooth="yes"/>
      <point x="229" y="68"/>
      <point x="228" y="40"/>
      <point x="270" y="40" type="curve" smooth="yes"/>
      <point x="381" y="40"/>
      <point x="463" y="104"/>
      <point x="463" y="209" type="curve" smooth="yes"/>
      <point x="463" y="245"/>
      <point x="445" y="277"/>
      <point x="417" y="304" type="curve" smooth="yes"/>
      <point x="377" y="341"/>
      <point x="293" y="345"/>
      <point x="229" y="347" type="curve"/>
    </contour>
    <contour>
      <point x="229" y="385" type="line"/>
      <point x="373" y="385"/>
      <point x="448" y="443"/>
      <point x="448" y="542" type="curve" smooth="yes"/>
      <point x="448" y="637"/>
      <point x="369" y="661"/>
      <point x="283" y="661" type="curve" smooth="yes"/>
      <point x="269" y="661"/>
      <point x="254" y="659"/>
      <point x="242" y="656" type="curve" smooth="yes"/>
      <point x="228" y="652"/>
      <point x="229" y="634"/>
      <point x="229" y="604" type="curve" smooth="yes"/>
    </contour>
  </outline>
</glyph>
<glyph name="C" format="2">
  <advance width="722"/>
  <unicode hex="0043"/>
  <anchor x="436" y="0" name="bottom"/>
  <anchor x="361" y="692" name="top"/>
  <outline>
    <contour>
      <point x="705" y="585" type="curve"/>
      <point x="611" y="499" type="line"/>
      <point x="595" y="502" type="line"/>
      <point x="572" y="588"/>
      <point x="520" y="666"/>
      <point x="409" y="666" type="curve" smooth="yes"/>
      <point x="238" y="666"/>
      <point x="187" y="484"/>
      <point x="187" y="360" type="curve" smooth="yes"/>
      <point x="187" y="219"/>
      <point x="260" y="43"/>
      <point x="448" y="43" type="curve" smooth="yes"/>
      <point x="529" y="43"/>
      <point x="606" y="72"/>
      <point x="676" y="106" type="curve"/>
      <point x="697" y="81" type="line"/>
      <point x="613" y="22"/>
      <point x="513" y="-18"/>
      <point x="407" y="-18" type="curve" smooth="yes"/>
      <point x="133" y="-18"/>
      <point x="40" y="154"/>
      <point x="40" y="331" type="curve" smooth="yes"/>
      <point x="40" y="430"/>
      <point x="66" y="531"/>
      <point x="145" y="603" type="curve" smooth="yes"/>
      <point x="222" y="673"/>
      <point x="327" y="711"/>
      <point x="436" y="711" type="curve" smooth="yes"/>
      <point x="562" y="711"/>
      <point x="646" y="677"/>
    </contour>
  </outline>
</glyph>
<glyph name="E" format="2">
  <advance width="611"/>
  <unicode hex="0045"/>
  <anchor x="306" y="0" name="bottom"/>
  <anchor x="306" y="692" name="top"/>
  <outline>
    <contour>
      <point x="317" y="61"/>
      <point x="475" y="70"/>
      <point x="591" y="76" type="curve"/>
      <point x="601" y="68" type="line"/>
      <point x="575" y="-8" type="line"/>
      <point x="461" y="-1"/>
      <point x="347" y="0"/>
      <point x="233" y="0" type="curve" smooth="yes"/>
      <point x="201" y="0"/>
      <point x="153" y="0"/>
      <point x="138" y="4" type="curve"/>
      <point x="123" y="12"/>
      <point x="105" y="32"/>
      <point x="105" y="51" type="curve" smooth="yes"/>
      <point x="105" y="480" type="line" smooth="yes"/>
      <point x="105" y="524"/>
      <point x="105" y="594"/>
      <point x="101" y="612" type="curve" smooth="yes"/>
      <point x="89" y="657"/>
      <point x="43" y="661"/>
      <point x="7" y="666" type="curve"/>
      <point x="7" y="689" type="line"/>
      <point x="14" y="696" type="line"/>
      <point x="175" y="696"/>
      <point x="379" y="696"/>
      <point x="492" y="709" type="curve"/>
      <point x="505" y="704" type="line"/>
      <point x="505" y="642" type="line"/>
      <point x="493" y="631" type="line"/>
      <point x="416" y="636"/>
      <point x="266" y="645"/>
      <point x="265" y="645" type="curve" smooth="yes"/>
      <point x="229" y="645"/>
      <point x="230" y="622"/>
      <point x="230" y="595" type="curve" smooth="yes"/>
      <point x="230" y="415" type="line" smooth="yes"/>
      <point x="230" y="406"/>
      <point x="238" y="389"/>
      <point x="250" y="389" type="curve" smooth="yes"/>
      <point x="312" y="389"/>
      <point x="467" y="405"/>
      <point x="470" y="406" type="curve"/>
      <point x="471" y="406"/>
      <point x="479" y="401"/>
      <point x="483" y="398" type="curve"/>
      <point x="483" y="340" type="line"/>
      <point x="414" y="343"/>
      <point x="334" y="343"/>
      <point x="258" y="343" type="curve" smooth="yes"/>
      <point x="235" y="343"/>
      <point x="230" y="330"/>
      <point x="230" y="316" type="curve" smooth="yes"/>
      <point x="230" y="251"/>
      <point x="230" y="174"/>
      <point x="239" y="123" type="curve"/>
      <point x="244" y="82"/>
      <point x="265" y="61"/>
      <point x="306" y="61" type="curve" smooth="yes"/>
    </contour>
  </outline>
</glyph>
<glyph name="H" format="2">
  <advance width="797"/>
  <unicode hex="0048"/>
  <outline>
    <contour>
      <point x="579" y="681" type="line"/>
      <point x="709" y="711" type="line"/>
      <point x="719" y="701" type="line"/>
      <point x="707" y="586"/>
      <point x="703" y="471"/>
      <point x="703" y="356" type="curve" smooth="yes"/>
      <point x="703" y="93"/>
      <point x="677" y="38"/>
      <point x="790" y="32" type="curve"/>
      <point x="790" y="8" type="line"/>
      <point x="784" y="-7" type="line"/>
      <point x="588" y="-7" type="line"/>
      <point x="565" y="14" type="line"/>
      <point x="575" y="113"/>
      <point x="579" y="212"/>
      <point x="579" y="312" type="curve" smooth="yes"/>
      <point x="579" y="337"/>
      <point x="561" y="339"/>
      <point x="543" y="339" type="curve" smooth="yes"/>
      <point x="255" y="339" type="line" smooth="yes"/>
      <point x="240" y="339"/>
      <point x="226" y="334"/>
      <point x="226" y="311" type="curve" smooth="yes"/>
      <point x="226" y="217"/>
      <point x="228" y="123"/>
      <point x="232" y="30" type="curve"/>
      <point x="107" y="-6" type="line"/>
      <point x="105" y="-3"/>
      <point x="100" y="2"/>
      <point x="100" y="3" type="curve" smooth="yes"/>
      <point x="105" y="122"/>
      <point x="105" y="240"/>
      <point x="105" y="359" type="curve" smooth="yes"/>
      <point x="105" y="612" type="line" smooth="yes"/>
      <point x="105" y="645"/>
      <point x="39" y="658"/>
      <point x="6" y="665" type="curve"/>
      <point x="6" y="688" type="line"/>
      <point x="14" y="698" type="line"/>
      <point x="228" y="698" type="line"/>
      <point x="236" y="690" type="line"/>
      <point x="231" y="595"/>
      <point x="225" y="496"/>
      <point x="225" y="413" type="curve" smooth="yes"/>
      <point x="225" y="394"/>
      <point x="240" y="388"/>
      <point x="256" y="388" type="curve" smooth="yes"/>
      <point x="545" y="388" type="line" smooth="yes"/>
      <point x="579" y="388"/>
      <point x="579" y="399"/>
      <point x="579" y="413" type="curve" smooth="yes"/>
    </contour>
  </outline>
</glyph>
<glyph name="I" format="2">
  <advance width="365"/>
  <unicode hex="0049"/>
  <anchor x="183" y="0" name="bottom"/>
  <anchor x="328" y="10" name="ogonek"/>
  <anchor x="183" y="692" name="top"/>
  <outline>
    <contour>
      <point x="251" y="646"/>
      <point x="243" y="632"/>
      <point x="243" y="618" type="curve"/>
      <point x="242" y="367" type="line"/>
      <point x="242" y="280"/>
      <point x="242" y="158"/>
      <point x="245" y="106" type="curve" smooth="yes"/>
      <point x="247" y="80"/>
      <point x="258" y="50"/>
      <point x="288" y="44" type="curve" smooth="yes"/>
      <point x="352" y="30" type="line"/>
      <point x="352" y="1" type="line"/>
      <point x="13" y="1" type="line"/>
      <point x="13" y="29" type="line"/>
      <point x="87" y="45" type="line" smooth="yes"/>
      <point x="103" y="48"/>
      <point x="115" y="65"/>
      <point x="115" y="81" type="curve" smooth="yes"/>
      <point x="117" y="124"/>
      <point x="117" y="275"/>
      <point x="117" y="372" type="curve" smooth="yes"/>
      <point x="117" y="455"/>
      <point x="117" y="541"/>
      <point x="111" y="622" type="curve" smooth="yes"/>
      <point x="110" y="635"/>
      <point x="98" y="648"/>
      <point x="83" y="651" type="curve" smooth="yes"/>
      <point x="14" y="666" type="line"/>
      <point x="14" y="692" type="line"/>
      <point x="18" y="696" type="line"/>
      <point x="341" y="696" type="line"/>
      <point x="345" y="692" type="line"/>
      <point x="345" y="665" type="line"/>
      <point x="267" y="649" type="line" smooth="yes"/>
    </contour>
  </outline>
</glyph>
<glyph name="K" format="2">
  <advance width="700"/>
  <unicode hex="004B"/>
  <outline>
    <contour>
      <point x="241" y="387" type="line"/>
      <point x="537" y="702" type="line"/>
      <point x="643" y="702" type="line"/>
      <point x="643" y="687" type="line"/>
      <point x="342" y="407" type="line"/>
      <point x="339" y="405"/>
      <point x="337" y="399"/>
      <point x="337" y="397" type="curve" smooth="yes"/>
      <point x="337" y="393"/>
      <point x="339" y="388"/>
      <point x="340" y="388" type="curve"/>
      <point x="689" y="70" type="line"/>
      <point x="689" y="54" type="line"/>
      <point x="551" y="-5" type="line"/>
      <point x="452" y="108"/>
      <point x="349" y="219"/>
      <point x="239" y="324" type="curve"/>
      <point x="229" y="324" type="line"/>
      <point x="229" y="226"/>
      <point x="230" y="128"/>
      <point x="240" y="30" type="curve"/>
      <point x="110" y="-12" type="line"/>
      <point x="100" y="-2" type="line"/>
      <point x="104" y="111"/>
      <point x="105" y="225"/>
      <point x="105" y="338" type="curve" smooth="yes"/>
      <point x="105" y="430"/>
      <point x="105" y="584"/>
      <point x="103" y="614" type="curve" smooth="yes"/>
      <point x="100" y="648"/>
      <point x="51" y="655"/>
      <point x="7" y="665" type="curve"/>
      <point x="7" y="691" type="line"/>
      <point x="11" y="701" type="line"/>
      <point x="237" y="701" type="line"/>
      <point x="244" y="694" type="line"/>
      <point x="234" y="591"/>
      <point x="229" y="490"/>
      <point x="229" y="387" type="curve"/>
    </contour>
  </outline>
</glyph>
<glyph name="P" format="2">
  <advance width="600"/>
  <unicode hex="0050"/>
  <outline>
    <contour>
      <point x="227" y="30" type="curve"/>
      <point x="100" y="-6" type="line"/>
      <point x="88" y="4" type="line"/>
      <point x="95" y="156"/>
      <point x="96" y="307"/>
      <point x="96" y="459" type="curve" smooth="yes"/>
      <point x="96" y="514"/>
      <point x="96" y="592"/>
      <point x="92" y="623" type="curve"/>
      <point x="84" y="659"/>
      <point x="39" y="665"/>
      <point x="6" y="669" type="curve"/>
      <point x="6" y="691" type="line"/>
      <point x="14" y="699" type="line"/>
      <point x="359" y="699" type="line" smooth="yes"/>
      <point x="519" y="699"/>
      <point x="574" y="633"/>
      <point x="574" y="540" type="curve" smooth="yes"/>
      <point x="574" y="479"/>
      <point x="556" y="419"/>
      <point x="508" y="375" type="curve" smooth="yes"/>
      <point x="460" y="330"/>
      <point x="379" y="313"/>
      <point x="307" y="307" type="curve" smooth="yes"/>
      <point x="279" y="305"/>
      <point x="222" y="315"/>
      <point x="222" y="282" type="curve" smooth="yes"/>
      <point x="222" y="281"/>
      <point x="225" y="114"/>
    </contour>
    <contour>
      <point x="222" y="361" type="curve" smooth="yes"/>
      <point x="222" y="349"/>
      <point x="235" y="341"/>
      <point x="249" y="341" type="curve" smooth="yes"/>
      <point x="365" y="341"/>
      <point x="432" y="424"/>
      <point x="432" y="522" type="curve" smooth="yes"/>
      <point x="432" y="599"/>
      <point x="383" y="664"/>
      <point x="292" y="664" type="curve" smooth="yes"/>
      <point x="267" y="664"/>
      <point x="220" y="671"/>
      <point x="220" y="641" type="curve" smooth="yes"/>
      <point x="220" y="640"/>
      <point x="221" y="454"/>
    </contour>
  </outline>
</glyph>
<glyph name="S" format="2">
  <advance width="558"/>
  <unicode hex="0053"/>
  <outline>
    <contour>
      <point x="431" y="548" type="line"/>
      <point x="414" y="553" type="line"/>
      <point x="405" y="619"/>
      <point x="362" y="685"/>
      <point x="280" y="685" type="curve" smooth="yes"/>
      <point x="216" y="685"/>
      <point x="176" y="639"/>
      <point x="176" y="584" type="curve" smooth="yes"/>
      <point x="176" y="498"/>
      <point x="259" y="453"/>
      <point x="333" y="416" type="curve" smooth="yes"/>
      <point x="450" y="356"/>
      <point x="524" y="308"/>
      <point x="524" y="213" type="curve" smooth="yes"/>
      <point x="524" y="76"/>
      <point x="358" y="-14"/>
      <point x="218" y="-14" type="curve" smooth="yes"/>
      <point x="137" y="-14"/>
      <point x="62" y="21"/>
      <point x="16" y="87" type="curve"/>
      <point x="113" y="196" type="line"/>
      <point x="132" y="189" type="line"/>
      <point x="132" y="114"/>
      <point x="186" y="35"/>
      <point x="275" y="35" type="curve" smooth="yes"/>
      <point x="347" y="35"/>
      <point x="403" y="95"/>
      <point x="403" y="158" type="curve" smooth="yes"/>
      <point x="403" y="196"/>
      <point x="378" y="227"/>
      <point x="349" y="254" type="curve" smooth="yes"/>
      <point x="277" y="320"/>
      <point x="65" y="373"/>
      <point x="65" y="520" type="curve" smooth="yes"/>
      <point x="65" y="665"/>
      <point x="194" y="723"/>
      <point x="325" y="723" type="curve" smooth="yes"/>
      <point x="427" y="723"/>
      <point x="495" y="697"/>
      <point x="526" y="622" type="curve"/>
    </contour>
  </outline>
</glyph>
<glyph name="T" format="2">
  <advance width="625"/>
  <unicode hex="0054"/>
  <outline>
    <contour>
      <point x="245" y="496" type="curve" smooth="yes"/>
      <point x="245" y="629" type="line" smooth="yes"/>
      <point x="245" y="643"/>
      <point x="234" y="648"/>
      <point x="220" y="647" type="curve" smooth="yes"/>
      <point x="19" y="637" type="line"/>
      <point x="10" y="646" type="line"/>
      <point x="10" y="704" type="line"/>
      <point x="18" y="712" type="line"/>
      <point x="114" y="710"/>
      <point x="210" y="703"/>
      <point x="306" y="703" type="curve" smooth="yes"/>
      <point x="406" y="703"/>
      <point x="506" y="710"/>
      <point x="606" y="714" type="curve"/>
      <point x="616" y="704" type="line"/>
      <point x="616" y="654" type="line"/>
      <point x="605" y="645" type="line"/>
      <point x="594" y="645"/>
      <point x="462" y="649"/>
      <point x="394" y="649" type="curve" smooth="yes"/>
      <point x="379" y="649"/>
      <point x="373" y="647"/>
      <point x="373" y="634" type="curve" smooth="yes"/>
      <point x="373" y="496" type="line" smooth="yes"/>
      <point x="373" y="341"/>
      <point x="380" y="185"/>
      <point x="390" y="30" type="curve"/>
      <point x="246" y="-11" type="line"/>
      <point x="237" y="1" type="line"/>
      <point x="242" y="166"/>
      <point x="245" y="331"/>
    </contour>
  </outline>
</glyph>
<glyph name="U" format="2">
  <advance width="823"/>
  <unicode hex="0055"/>
  <anchor x="412" y="0" name="bottom"/>
  <anchor x="412" y="692" name="top"/>
  <outline>
    <contour>
      <point x="563" y="283"/>
      <point x="563" y="560"/>
      <point x="556" y="671" type="curve"/>
      <point x="696" y="717" type="line"/>
      <point x="711" y="709" type="line"/>
      <point x="703" y="672"/>
      <point x="697" y="630"/>
      <point x="695" y="589" type="curve" smooth="yes"/>
      <point x="689" y="452"/>
      <point x="689" y="315"/>
      <point x="689" y="180" type="curve" smooth="yes"/>
      <point x="689" y="111"/>
      <point x="682" y="63"/>
      <point x="758" y="63" type="curve" smooth="yes"/>
      <point x="777" y="63"/>
      <point x="798" y="65"/>
      <point x="815" y="67" type="curve"/>
      <point x="816" y="49" type="line"/>
      <point x="808" y="39" type="line"/>
      <point x="651" y="-5" type="line" smooth="yes"/>
      <point x="638" y="-9"/>
      <point x="624" y="-10"/>
      <point x="611" y="-10" type="curve" smooth="yes"/>
      <point x="579" y="-10"/>
      <point x="568" y="15"/>
      <point x="562" y="39" type="curve"/>
      <point x="551" y="44" type="line"/>
      <point x="481" y="16"/>
      <point x="407" y="-8"/>
      <point x="332" y="-8" type="curve" smooth="yes"/>
      <point x="274" y="-8"/>
      <point x="213" y="0"/>
      <point x="172" y="38" type="curve" smooth="yes"/>
      <point x="115" y="90"/>
      <point x="104" y="185"/>
      <point x="104" y="260" type="curve" smooth="yes"/>
      <point x="104" y="334"/>
      <point x="111" y="436"/>
      <point x="111" y="524" type="curve" smooth="yes"/>
      <point x="111" y="561"/>
      <point x="111" y="584"/>
      <point x="107" y="622" type="curve"/>
      <point x="100" y="658"/>
      <point x="45" y="664"/>
      <point x="7" y="670" type="curve"/>
      <point x="7" y="696" type="line"/>
      <point x="12" y="704" type="line"/>
      <point x="241" y="704" type="line"/>
      <point x="251" y="693" type="line"/>
      <point x="235" y="560"/>
      <point x="231" y="431"/>
      <point x="231" y="297" type="curve" smooth="yes"/>
      <point x="231" y="125"/>
      <point x="307" y="53"/>
      <point x="429" y="53" type="curve" smooth="yes"/>
      <point x="476" y="53"/>
      <point x="523" y="70"/>
      <point x="563" y="88" type="curve"/>
    </contour>
  </outline>
</glyph>
<glyph name="W" format="2">
  <advance width="1180"/>
  <unicode hex="0057"/>
  <outline>
    <contour>
      <point x="1170" y="699" type="line"/>
      <point x="1170" y="684" type="line"/>
      <point x="1036" y="471"/>
      <point x="927" y="246"/>
      <point x="823" y="19" type="curve"/>
      <point x="718" y="-16" type="line"/>
      <point x="704" y="-4" type="line"/>
      <point x="587" y="522" type="line"/>
      <point x="586" y="529"/>
      <point x="584" y="536"/>
      <point x="579" y="536" type="curve" smooth="yes"/>
      <point x="572" y="536"/>
      <point x="569" y="530"/>
      <point x="566" y="523" type="curve" smooth="yes"/>
      <point x="490" y="354"/>
      <point x="419" y="193"/>
      <point x="354" y="20" type="curve"/>
      <point x="254" y="-12" type="line"/>
      <point x="240" y="-2" type="line"/>
      <point x="240" y="-5"/>
      <point x="122" y="528"/>
      <point x="83" y="633" type="curve" smooth="yes"/>
      <point x="74" y="657"/>
      <point x="17" y="670"/>
      <point x="6" y="670" type="curve"/>
      <point x="6" y="692" type="line"/>
      <point x="14" y="701" type="line"/>
      <point x="212" y="701" type="line"/>
      <point x="244" y="524"/>
      <point x="287" y="348"/>
      <point x="335" y="174" type="curve" smooth="yes"/>
      <point x="336" y="170"/>
      <point x="339" y="168"/>
      <point x="342" y="168" type="curve" smooth="yes"/>
      <point x="346" y="168"/>
      <point x="349" y="174"/>
      <point x="351" y="177" type="curve"/>
      <point x="435" y="343"/>
      <point x="512" y="503"/>
      <point x="573" y="678" type="curve"/>
      <point x="676" y="699" type="line"/>
      <point x="683" y="694" type="line"/>
      <point x="708" y="516"/>
      <point x="760" y="334"/>
      <point x="804" y="151" type="curve" smooth="yes"/>
      <point x="805" y="146"/>
      <point x="809" y="136"/>
      <point x="813" y="136" type="curve" smooth="yes"/>
      <point x="817" y="136"/>
      <point x="820" y="139"/>
      <point x="824" y="147" type="curve" smooth="yes"/>
      <point x="904" y="316"/>
      <point x="994" y="508"/>
      <point x="1050" y="683" type="curve"/>
    </contour>
  </outline>
</glyph>
<glyph name="Z" format="2">
  <advance width="695"/>
  <unicode hex="005A"/>
  <outline>
    <contour>
      <point x="456" y="629" type="curve"/>
      <point x="446" y="643" type="line"/>
      <point x="322" y="640"/>
      <point x="165" y="635"/>
      <point x="100" y="630" type="curve"/>
      <point x="92" y="638" type="line"/>
      <point x="92" y="702" type="line"/>
      <point x="101" y="709" type="line"/>
      <point x="278" y="699"/>
      <point x="458" y="697"/>
      <point x="633" y="697" type="curve"/>
      <point x="633" y="670" type="line"/>
      <point x="481" y="478"/>
      <point x="357" y="283"/>
      <point x="217" y="84" type="curve"/>
      <point x="216" y="83"/>
      <point x="215" y="81"/>
      <point x="215" y="80" type="curve" smooth="yes"/>
      <point x="215" y="71"/>
      <point x="225" y="64"/>
      <point x="235" y="64" type="curve" smooth="yes"/>
      <point x="379" y="65"/>
      <point x="523" y="72"/>
      <point x="667" y="80" type="curve"/>
      <point x="682" y="67" type="line"/>
      <point x="655" y="-11" type="line"/>
      <point x="528" y="0"/>
      <point x="224" y="0"/>
      <point x="8" y="0" type="curve"/>
      <point x="8" y="24" type="line"/>
      <point x="167" y="223"/>
      <point x="307" y="424"/>
    </contour>
  </outline>
</glyph>
<glyph name="backslash" format="2">
  <advance width="460"/>
  <unicode hex="005C"/>
  <outline>
    <contour>
      <point x="430" y="-194" type="line"/>
      <point x="-13" y="709" type="line"/>
      <point x="33" y="728" type="line"/>
      <point x="472" y="-169" type="line"/>
    </contour>
  </outline>
</glyph>
<glyph name="bracketright" format="2">
  <advance width="301"/>
  <unicode hex="005D"/>
  <outline>
    <contour>
      <point x="161" y="700" type="line"/>
      <point x="17" y="709" type="line"/>
      <point x="17" y="733" type="line"/>
      <point x="82" y="733"/>
      <point x="155" y="733"/>
      <point x="211" y="739" type="curve"/>
      <point x="211" y="-132" type="line"/>
      <point x="147" y="-125"/>
      <point x="82" y="-124"/>
      <point x="17" y="-124" type="curve"/>
      <point x="17" y="-103" type="line"/>
      <point x="161" y="-92" type="line"/>
    </contour>
  </outline>
</glyph>
<glyph name="underscore" format="2">
  <advance width="893"/>
  <unicode hex="005F"/>
  <outline>
    <contour>
      <point x="893" y="-119" type="line"/>
      <point x="0" y="-119" type="line"/>
      <point x="0" y="-69" type="line"/>
      <point x="893" y="-69" type="line"/>
    </contour>
  </outline>
</glyph>
<glyph name="a" format="2">
  <advance width="598"/>
  <unicode hex="0061"/>
  <anchor x="299" y="0" name="bottom"/>
  <anchor x="289" y="488" name="top"/>
  <outline>
    <contour>
      <point x="483" y="493" type="line"/>
      <point x="497" y="484" type="line"/>
      <point x="488" y="393"/>
      <point x="481" y="302"/>
      <point x="481" y="211" type="curve" smooth="yes"/>
      <point x="481" y="122"/>
      <point x="481" y="73"/>
      <point x="514" y="73" type="curve" smooth="yes"/>
      <point x="536" y="73"/>
      <point x="564" y="97"/>
      <point x="584" y="115" type="curve"/>
      <point x="603" y="94" type="line"/>
      <point x="563" y="46"/>
      <point x="506" y="-12"/>
      <point x="438" y="-12" type="curve" smooth="yes"/>
      <point x="393" y="-12"/>
      <point x="380" y="24"/>
      <point x="376" y="54" type="curve"/>
      <point x="363" y="59" type="line"/>
      <point x="311" y="20"/>
      <point x="245" y="-15"/>
      <point x="177" y="-15" type="curve" smooth="yes"/>
      <point x="69" y="-15"/>
      <point x="35" y="108"/>
      <point x="35" y="191" type="curve" smooth="yes"/>
      <point x="35" y="393"/>
      <point x="118" y="498"/>
      <point x="277" y="498" type="curve" smooth="yes"/>
      <point x="331" y="498"/>
      <point x="379" y="482"/>
      <point x="423" y="455" type="curve"/>
    </contour>
    <contour>
      <point x="376" y="161"/>
      <point x="378" y="263"/>
      <point x="378" y="331" type="curve" smooth="yes"/>
      <point x="378" y="383"/>
      <point x="367" y="460"/>
      <point x="286" y="460" type="curve" smooth="yes"/>
      <point x="171" y="460"/>
      <point x="148" y="321"/>
      <point x="148" y="230" type="curve" smooth="yes"/>
      <point x="148" y="161"/>
      <point x="169" y="63"/>
      <point x="253" y="63" type="curve" smooth="yes"/>
      <point x="298" y="63"/>
      <point x="341" y="90"/>
      <point x="370" y="117" type="curve"/>
    </contour>
  </outline>
</glyph>
<glyph name="b" format="2">
  <advance width="567"/>
  <unicode hex="0062"/>
  <outline>
    <contour>
      <point x="192" y="693" type="line"/>
      <point x="185" y="418" type="line"/>
      <point x="196" y="415" type="line"/>
      <point x="248" y="458"/>
      <point x="311" y="493"/>
      <point x="382" y="493" type="curve" smooth="yes"/>
      <point x="498" y="493"/>
      <point x="540" y="386"/>
      <point x="540" y="296" type="curve" smooth="yes"/>
      <point x="540" y="213"/>
      <point x="511" y="129"/>
      <point x="444" y="72" type="curve" smooth="yes"/>
      <point x="385" y="22"/>
      <point x="312" y="-14"/>
      <point x="231" y="-14" type="curve" smooth="yes"/>
      <point x="151" y="-14"/>
      <point x="76" y="27"/>
      <point x="76" y="161" type="curve" smooth="yes"/>
      <point x="76" y="507" type="line" smooth="yes"/>
      <point x="76" y="546"/>
      <point x="74" y="572"/>
      <point x="74" y="602" type="curve" smooth="yes"/>
      <point x="74" y="632"/>
      <point x="40" y="641"/>
      <point x="-20" y="646" type="curve"/>
      <point x="-20" y="668" type="line"/>
      <point x="-11" y="677" type="line"/>
      <point x="177" y="705" type="line"/>
    </contour>
    <contour>
      <point x="185" y="367" type="curve"/>
      <point x="182" y="233" type="line"/>
      <point x="182" y="150"/>
      <point x="197" y="38"/>
      <point x="280" y="38" type="curve" smooth="yes"/>
      <point x="390" y="38"/>
      <point x="421" y="151"/>
      <point x="421" y="238" type="curve" smooth="yes"/>
      <point x="421" y="311"/>
      <point x="408" y="419"/>
      <point x="302" y="419" type="curve" smooth="yes"/>
      <point x="259" y="419"/>
      <point x="218" y="391"/>
    </contour>
  </outline>
</glyph>
<glyph name="c" format="2">
  <advance width="475"/>
  <unicode hex="0063"/>
  <anchor x="246" y="0" name="bottom"/>
  <anchor x="278" y="486" name="top"/>
  <outline>
    <contour>
      <point x="455" y="379" type="curve"/>
      <point x="363" y="324" type="line"/>
      <point x="346" y="331" type="line"/>
      <point x="346" y="393"/>
      <point x="323" y="456"/>
      <point x="258" y="456" type="curve" smooth="yes"/>
      <point x="171" y="456"/>
      <point x="147" y="317"/>
      <point x="147" y="248" type="curve" smooth="yes"/>
      <point x="147" y="173"/>
      <point x="178" y="59"/>
      <point x="283" y="59" type="curve" smooth="yes"/>
      <point x="340" y="59"/>
      <point x="397" y="89"/>
      <point x="448" y="128" type="curve"/>
      <point x="460" y="125" type="line"/>
      <point x="470" y="111" type="line"/>
      <point x="402" y="43"/>
      <point x="314" y="-10"/>
      <point x="212" y="-10" type="curve" smooth="yes"/>
      <point x="80" y="-10"/>
      <point x="29" y="94"/>
      <point x="29" y="193" type="curve" smooth="yes"/>
      <point x="29" y="338"/>
      <point x="100" y="496"/>
      <point x="299" y="496" type="curve" smooth="yes"/>
      <point x="374" y="496"/>
      <point x="449" y="469"/>
    </contour>
  </outline>
</glyph>
<glyph name="e" format="2">
  <advance width="510"/>
  <unicode hex="0065"/>
  <anchor x="255" y="0" name="bottom"/>
  <anchor x="285" y="485" name="top"/>
  <outline>
    <contour>
      <point x="158" y="257"/>
      <point x="160" y="258"/>
      <point x="162" y="258" type="curve"/>
      <point x="347" y="317"/>
      <point x="377" y="315"/>
      <point x="377" y="344" type="curve" smooth="yes"/>
      <point x="377" y="395"/>
      <point x="351" y="455"/>
      <point x="286" y="455" type="curve" smooth="yes"/>
      <point x="178" y="455"/>
      <point x="149" y="335"/>
      <point x="149" y="262" type="curve" smooth="yes"/>
      <point x="149" y="258"/>
      <point x="152" y="257"/>
      <point x="156" y="257" type="curve" smooth="yes"/>
    </contour>
    <contour>
      <point x="464" y="101" type="line"/>
      <point x="475" y="82" type="line"/>
      <point x="409" y="35"/>
      <point x="328" y="-16"/>
      <point x="246" y="-16" type="curve" smooth="yes"/>
      <point x="189" y="-16"/>
      <point x="130" y="-2"/>
      <point x="90" y="35" type="curve" smooth="yes"/>
      <point x="42" y="79"/>
      <point x="29" y="143"/>
      <point x="29" y="204" type="curve" smooth="yes"/>
      <point x="29" y="351"/>
      <point x="120" y="495"/>
      <point x="309" y="495" type="curve" smooth="yes"/>
      <point x="403" y="495"/>
      <point x="500" y="459"/>
      <point x="500" y="349" type="curve" smooth="yes"/>
      <point x="500" y="328"/>
      <point x="490" y="318"/>
      <point x="471" y="312" type="curve"/>
      <point x="470" y="312"/>
      <point x="256" y="246"/>
      <point x="149" y="213" type="curve"/>
      <point x="149" y="133"/>
      <point x="200" y="52"/>
      <point x="297" y="52" type="curve" smooth="yes"/>
      <point x="352" y="52"/>
      <point x="403" y="77"/>
      <point x="449" y="105" type="curve"/>
    </contour>
  </outline>
</glyph>
<glyph name="j" format="2">
  <advance width="280"/>
  <unicode hex="006A"/>
  <outline>
    <contour>
      <point x="96" y="621" type="curve" smooth="yes"/>
      <point x="96" y="657"/>
      <point x="126" y="687"/>
      <point x="162" y="687" type="curve" smooth="yes"/>
      <point x="198" y="687"/>
      <point x="228" y="657"/>
      <point x="228" y="621" type="curve" smooth="yes"/>
      <point x="228" y="585"/>
      <point x="198" y="555"/>
      <point x="162" y="555" type="curve" smooth="yes"/>
      <point x="126" y="555"/>
      <point x="96" y="585"/>
    </contour>
    <contour>
      <point x="7" y="389" type="curve"/>
      <point x="-9" y="411" type="line"/>
      <point x="36" y="445"/>
      <point x="97" y="493"/>
      <point x="150" y="493" type="curve" smooth="yes"/>
      <point x="233" y="493"/>
      <point x="220" y="417"/>
      <point x="220" y="256" type="curve" smooth="yes"/>
      <point x="220" y="191"/>
      <point x="220" y="81"/>
      <point x="215" y="27" type="curve" smooth="yes"/>
      <point x="203" y="-85"/>
      <point x="81" y="-180"/>
      <point x="-22" y="-246" type="curve"/>
      <point x="-49" y="-227" type="line"/>
      <point x="32" y="-166"/>
      <point x="104" y="-101"/>
      <point x="111" y="0" type="curve" smooth="yes"/>
      <point x="113" y="32"/>
      <point x="114" y="78"/>
      <point x="114" y="125" type="curve" smooth="yes"/>
      <point x="114" y="275"/>
      <point x="130" y="420"/>
      <point x="76" y="420" type="curve" smooth="yes"/>
      <point x="54" y="420"/>
      <point x="27" y="405"/>
    </contour>
  </outline>
</glyph>
<glyph name="l" format="2">
  <advance width="322"/>
  <unicode hex="006C"/>
  <outline>
    <contour>
      <point x="195" y="685" type="line"/>
      <point x="187" y="231" type="line"/>
      <point x="187" y="218"/>
      <point x="186" y="203"/>
      <point x="186" y="188" type="curve" smooth="yes"/>
      <point x="186" y="117"/>
      <point x="190" y="78"/>
      <point x="224" y="78" type="curve" smooth="yes"/>
      <point x="252" y="78"/>
      <point x="278" y="101"/>
      <point x="298" y="123" type="curve"/>
      <point x="310" y="123" type="line"/>
      <point x="326" y="107" type="line"/>
      <point x="288" y="56"/>
      <point x="228" y="-7"/>
      <point x="163" y="-7" type="curve" smooth="yes"/>
      <point x="78" y="-7"/>
      <point x="78" y="62"/>
      <point x="78" y="124" type="curve" smooth="yes"/>
      <point x="78" y="200"/>
      <point x="82" y="276"/>
      <point x="82" y="358" type="curve" smooth="yes"/>
      <point x="82" y="414"/>
      <point x="82" y="472"/>
      <point x="81" y="527" type="curve" smooth="yes"/>
      <point x="80" y="556"/>
      <point x="80" y="597"/>
      <point x="76" y="614" type="curve" smooth="yes"/>
      <point x="68" y="649"/>
      <point x="28" y="647"/>
      <point x="-14" y="649" type="curve"/>
      <point x="-14" y="672" type="line"/>
      <point x="-2" y="680" type="line"/>
      <point x="182" y="697" type="line"/>
    </contour>
  </outline>
</glyph>
<glyph name="n" format="2">
  <advance width="658"/>
  <unicode hex="006E"/>
  <anchor x="329" y="0" name="bottom"/>
  <anchor x="329" y="485" name="top"/>
  <outline>
    <contour>
      <point x="224" y="378" type="curve"/>
      <point x="224" y="261"/>
      <point x="227" y="59"/>
      <point x="234" y="28" type="curve"/>
      <point x="124" y="-4" type="line"/>
      <point x="112" y="3" type="line"/>
      <point x="115" y="101"/>
      <point x="119" y="295"/>
      <point x="119" y="296" type="curve" smooth="yes"/>
      <point x="119" y="360"/>
      <point x="121" y="423"/>
      <point x="81" y="423" type="curve" smooth="yes"/>
      <point x="61" y="423"/>
      <point x="24" y="398"/>
      <point x="11" y="390" type="curve"/>
      <point x="-7" y="414" type="line"/>
      <point x="39" y="451"/>
      <point x="100" y="497"/>
      <point x="155" y="497" type="curve" smooth="yes"/>
      <point x="207" y="497"/>
      <point x="218" y="462"/>
      <point x="221" y="428" type="curve"/>
      <point x="233" y="424" type="line"/>
      <point x="291" y="460"/>
      <point x="365" y="494"/>
      <point x="432" y="494" type="curve" smooth="yes"/>
      <point x="543" y="494"/>
      <point x="533" y="404"/>
      <point x="533" y="273" type="curve" smooth="yes"/>
      <point x="533" y="242"/>
      <point x="530" y="202"/>
      <point x="530" y="170" type="curve" smooth="yes"/>
      <point x="530" y="113"/>
      <point x="537" y="106"/>
      <point x="546" y="98" type="curve"/>
      <point x="553" y="91"/>
      <point x="563" y="88"/>
      <point x="574" y="88" type="curve" smooth="yes"/>
      <point x="599" y="88"/>
      <point x="621" y="100"/>
      <point x="641" y="114" type="curve"/>
      <point x="653" y="114" type="line"/>
      <point x="664" y="97" type="line"/>
      <point x="620" y="53"/>
      <point x="561" y="-10"/>
      <point x="505" y="-10" type="curve" smooth="yes"/>
      <point x="485" y="-10"/>
      <point x="465" y="-3"/>
      <point x="451" y="10" type="curve" smooth="yes"/>
      <point x="421" y="38"/>
      <point x="428" y="94"/>
      <point x="428" y="240" type="curve" smooth="yes"/>
      <point x="428" y="298"/>
      <point x="428" y="383"/>
      <point x="401" y="408" type="curve" smooth="yes"/>
      <point x="386" y="422"/>
      <point x="365" y="424"/>
      <point x="345" y="424" type="curve" smooth="yes"/>
      <point x="315" y="424"/>
      <point x="261" y="398"/>
    </contour>
  </outline>
</glyph>
<glyph name="o" format="2">
  <advance width="575"/>
  <unicode hex="006F"/>
  <anchor x="295" y="476" name="top"/>
  <outline>
    <contour>
      <point x="188" y="446"/>
      <point x="161" y="321"/>
      <point x="161" y="234" type="curve" smooth="yes"/>
      <point x="161" y="167"/>
      <point x="183" y="30"/>
      <point x="281" y="30" type="curve" smooth="yes"/>
      <point x="409" y="30"/>
      <point x="414" y="156"/>
      <point x="414" y="268" type="curve" smooth="yes"/>
      <point x="414" y="353"/>
      <point x="387" y="446"/>
      <point x="293" y="446" type="curve" smooth="yes"/>
    </contour>
    <contour>
      <point x="48" y="88"/>
      <point x="32" y="162"/>
      <point x="32" y="233" type="curve" smooth="yes"/>
      <point x="32" y="378"/>
      <point x="143" y="486"/>
      <point x="299" y="486" type="curve" smooth="yes"/>
      <point x="363" y="486"/>
      <point x="429" y="473"/>
      <point x="476" y="431" type="curve" smooth="yes"/>
      <point x="522" y="389"/>
      <point x="543" y="332"/>
      <point x="543" y="274" type="curve" smooth="yes"/>
      <point x="543" y="68"/>
      <point x="420" y="-11"/>
      <point x="273" y="-11" type="curve" smooth="yes"/>
      <point x="212" y="-11"/>
      <point x="148" y="-3"/>
      <point x="104" y="37" type="curve" smooth="yes"/>
    </contour>
  </outline>
</glyph>
<glyph name="p" format="2">
  <advance width="597"/>
  <unicode hex="0070"/>
  <outline>
    <contour>
      <point x="222" y="-217" type="line"/>
      <point x="101" y="-247" type="line"/>
      <point x="89" y="-238" type="line"/>
      <point x="95" y="-75"/>
      <point x="110" y="12"/>
      <point x="110" y="297" type="curve" smooth="yes"/>
      <point x="110" y="359"/>
      <point x="112" y="413"/>
      <point x="71" y="413" type="curve" smooth="yes"/>
      <point x="53" y="413"/>
      <point x="26" y="396"/>
      <point x="8" y="385" type="curve"/>
      <point x="-6" y="409" type="line"/>
      <point x="40" y="445"/>
      <point x="97" y="488"/>
      <point x="153" y="488" type="curve" smooth="yes"/>
      <point x="197" y="488"/>
      <point x="216" y="460"/>
      <point x="218" y="425" type="curve"/>
      <point x="226" y="421" type="line"/>
      <point x="277" y="454"/>
      <point x="343" y="488"/>
      <point x="400" y="488" type="curve" smooth="yes"/>
      <point x="534" y="488"/>
      <point x="569" y="380"/>
      <point x="569" y="284" type="curve" smooth="yes"/>
      <point x="569" y="143"/>
      <point x="478" y="0"/>
      <point x="310" y="0" type="curve" smooth="yes"/>
      <point x="280" y="0"/>
      <point x="250" y="4"/>
      <point x="224" y="21" type="curve"/>
      <point x="222" y="15" type="line"/>
    </contour>
    <contour>
      <point x="242" y="69" type="curve" smooth="yes"/>
      <point x="261" y="52"/>
      <point x="287" y="42"/>
      <point x="314" y="42" type="curve" smooth="yes"/>
      <point x="423" y="42"/>
      <point x="449" y="148"/>
      <point x="449" y="230" type="curve" smooth="yes"/>
      <point x="449" y="307"/>
      <point x="433" y="414"/>
      <point x="332" y="414" type="curve" smooth="yes"/>
      <point x="291" y="414"/>
      <point x="249" y="389"/>
      <point x="215" y="366" type="curve"/>
      <point x="215" y="163" type="line" smooth="yes"/>
      <point x="215" y="129"/>
      <point x="218" y="91"/>
    </contour>
  </outline>
</glyph>
<glyph name="q" format="2">
  <advance width="543"/>
  <unicode hex="0071"/>
  <outline>
    <contour>
      <point x="490" y="-213" type="curve"/>
      <point x="381" y="-247" type="line"/>
      <point x="373" y="-240" type="line"/>
      <point x="373" y="54" type="line"/>
      <point x="364" y="59" type="line"/>
      <point x="305" y="21"/>
      <point x="241" y="-13"/>
      <point x="171" y="-13" type="curve" smooth="yes"/>
      <point x="50" y="-13"/>
      <point x="35" y="100"/>
      <point x="35" y="202" type="curve" smooth="yes"/>
      <point x="35" y="340"/>
      <point x="104" y="495"/>
      <point x="288" y="495" type="curve" smooth="yes"/>
      <point x="330" y="495"/>
      <point x="374" y="484"/>
      <point x="409" y="464" type="curve"/>
      <point x="468" y="538" type="line"/>
      <point x="489" y="535" type="line"/>
      <point x="483" y="433"/>
      <point x="478" y="331"/>
      <point x="478" y="228" type="curve" smooth="yes"/>
      <point x="478" y="97"/>
      <point x="482" y="-85"/>
    </contour>
    <contour>
      <point x="373" y="112" type="curve"/>
      <point x="373" y="349" type="line" smooth="yes"/>
      <point x="373" y="416"/>
      <point x="337" y="455"/>
      <point x="281" y="455" type="curve" smooth="yes"/>
      <point x="173" y="455"/>
      <point x="150" y="324"/>
      <point x="150" y="235" type="curve" smooth="yes"/>
      <point x="150" y="164"/>
      <point x="166" y="61"/>
      <point x="257" y="61" type="curve" smooth="yes"/>
      <point x="305" y="61"/>
      <point x="343" y="89"/>
    </contour>
  </outline>
</glyph>
<glyph name="r" format="2">
  <advance width="457"/>
  <unicode hex="0072"/>
  <outline>
    <contour>
      <point x="232" y="33" type="curve"/>
      <point x="126" y="-6" type="line"/>
      <point x="106" y="1" type="line"/>
      <point x="109" y="101"/>
      <point x="113" y="293"/>
      <point x="113" y="294" type="curve" smooth="yes"/>
      <point x="113" y="354"/>
      <point x="116" y="415"/>
      <point x="77" y="415" type="curve" smooth="yes"/>
      <point x="58" y="415"/>
      <point x="28" y="400"/>
      <point x="9" y="385" type="curve"/>
      <point x="-7" y="408" type="line"/>
      <point x="38" y="443"/>
      <point x="96" y="489"/>
      <point x="151" y="489" type="curve" smooth="yes"/>
      <point x="206" y="489"/>
      <point x="217" y="451"/>
      <point x="217" y="402" type="curve"/>
      <point x="228" y="397" type="line"/>
      <point x="268" y="438"/>
      <point x="321" y="486"/>
      <point x="379" y="486" type="curve" smooth="yes"/>
      <point x="436" y="486"/>
      <point x="458" y="441"/>
      <point x="458" y="396" type="curve"/>
      <point x="383" y="338" type="line"/>
      <point x="370" y="346" type="line"/>
      <point x="364" y="374"/>
      <point x="346" y="401"/>
      <point x="313" y="401" type="curve" smooth="yes"/>
      <point x="235" y="401"/>
      <point x="218" y="313"/>
      <point x="218" y="257" type="curve" smooth="yes"/>
      <point x="218" y="225"/>
      <point x="225" y="109"/>
    </contour>
  </outline>
</glyph>
<glyph name="t" format="2">
  <advance width="370"/>
  <unicode hex="0074"/>
  <outline>
    <contour>
      <point x="101" y="588" type="curve"/>
      <point x="208" y="624" type="line"/>
      <point x="223" y="617" type="line"/>
      <point x="223" y="616"/>
      <point x="215" y="515"/>
      <point x="211" y="453" type="curve"/>
      <point x="218" y="445" type="line"/>
      <point x="343" y="445" type="line"/>
      <point x="350" y="435" type="line"/>
      <point x="340" y="409" type="line"/>
      <point x="328" y="400" type="line"/>
      <point x="218" y="400" type="line"/>
      <point x="210" y="392" type="line"/>
      <point x="210" y="233" type="line" smooth="yes"/>
      <point x="210" y="149"/>
      <point x="210" y="73"/>
      <point x="265" y="73" type="curve" smooth="yes"/>
      <point x="292" y="73"/>
      <point x="324" y="93"/>
      <point x="346" y="113" type="curve"/>
      <point x="356" y="113" type="line"/>
      <point x="368" y="98" type="line"/>
      <point x="330" y="48"/>
      <point x="270" y="-11"/>
      <point x="203" y="-11" type="curve" smooth="yes"/>
      <point x="107" y="-11"/>
      <point x="105" y="79"/>
      <point x="105" y="163" type="curve" smooth="yes"/>
      <point x="105" y="391" type="line"/>
      <point x="96" y="400" type="line"/>
      <point x="-14" y="400" type="line"/>
      <point x="-20" y="408" type="line"/>
      <point x="-10" y="437" type="line"/>
      <point x="1" y="444" type="line"/>
      <point x="97" y="444" type="line"/>
      <point x="104" y="453" type="line"/>
      <point x="103" y="505"/>
      <point x="101" y="587"/>
    </contour>
  </outline>
</glyph>
<glyph name="v" format="2">
  <advance width="552"/>
  <unicode hex="0076"/>
  <outline>
    <contour>
      <point x="8" y="386" type="curve"/>
      <point x="-7" y="411" type="line"/>
      <point x="40" y="444"/>
      <point x="101" y="487"/>
      <point x="152" y="487" type="curve" smooth="yes"/>
      <point x="166" y="487"/>
      <point x="182" y="484"/>
      <point x="193" y="475" type="curve" smooth="yes"/>
      <point x="245" y="433"/>
      <point x="261" y="113"/>
      <point x="320" y="113" type="curve" smooth="yes"/>
      <point x="330" y="113"/>
      <point x="341" y="118"/>
      <point x="347" y="124" type="curve"/>
      <point x="401" y="171"/>
      <point x="441" y="230"/>
      <point x="441" y="302" type="curve" smooth="yes"/>
      <point x="441" y="340"/>
      <point x="422" y="385"/>
      <point x="397" y="416" type="curve"/>
      <point x="397" y="433" type="line"/>
      <point x="472" y="490" type="line"/>
      <point x="485" y="490" type="line"/>
      <point x="521" y="468"/>
      <point x="537" y="428"/>
      <point x="537" y="389" type="curve" smooth="yes"/>
      <point x="537" y="321"/>
      <point x="501" y="260"/>
      <point x="461" y="204" type="curve" smooth="yes"/>
      <point x="369" y="77"/>
      <point x="281" y="8"/>
      <point x="257" y="-12" type="curve"/>
      <point x="214" y="-12" type="line"/>
      <point x="200" y="51"/>
      <point x="174" y="161"/>
      <point x="153" y="245" type="curve" smooth="yes"/>
      <point x="137" y="308"/>
      <point x="128" y="412"/>
      <point x="77" y="412" type="curve" smooth="yes"/>
      <point x="63" y="412"/>
      <point x="30" y="400"/>
    </contour>
  </outline>
</glyph>
<glyph name="w" format="2">
  <advance width="904"/>
  <unicode hex="0077"/>
  <outline>
    <contour>
      <point x="231" y="382" type="curve" smooth="yes"/>
      <point x="266" y="142" type="line"/>
      <point x="276" y="139" type="line"/>
      <point x="346" y="244"/>
      <point x="413" y="351"/>
      <point x="469" y="463" type="curve"/>
      <point x="523" y="493" type="line"/>
      <point x="536" y="491" type="line"/>
      <point x="561" y="365"/>
      <point x="594" y="241"/>
      <point x="645" y="121" type="curve" smooth="yes"/>
      <point x="647" y="116"/>
      <point x="650" y="109"/>
      <point x="654" y="109" type="curve" smooth="yes"/>
      <point x="660" y="109"/>
      <point x="669" y="111"/>
      <point x="674" y="115" type="curve" smooth="yes"/>
      <point x="732" y="160"/>
      <point x="788" y="229"/>
      <point x="788" y="302" type="curve" smooth="yes"/>
      <point x="788" y="342"/>
      <point x="764" y="388"/>
      <point x="741" y="423" type="curve"/>
      <point x="741" y="436" type="line"/>
      <point x="823" y="496" type="line"/>
      <point x="839" y="494" type="line"/>
      <point x="867" y="463"/>
      <point x="890" y="427"/>
      <point x="890" y="387" type="curve" smooth="yes"/>
      <point x="890" y="285"/>
      <point x="775" y="161"/>
      <point x="687" y="68" type="curve" smooth="yes"/>
      <point x="663" y="43"/>
      <point x="621" y="-7"/>
      <point x="588" y="-7" type="curve" smooth="yes"/>
      <point x="567" y="-7"/>
      <point x="556" y="24"/>
      <point x="550" y="43" type="curve" smooth="yes"/>
      <point x="456" y="336" type="line"/>
      <point x="446" y="336" type="line"/>
      <point x="381" y="224"/>
      <point x="307" y="115"/>
      <point x="245" y="2" type="curve"/>
      <point x="183" y="-13" type="line"/>
      <point x="172" y="-7" type="line"/>
      <point x="168" y="67"/>
      <point x="159" y="140"/>
      <point x="150" y="213" type="curve" smooth="yes"/>
      <point x="139" y="302"/>
      <point x="129" y="408"/>
      <point x="78" y="408" type="curve" smooth="yes"/>
      <point x="54" y="408"/>
      <point x="26" y="400"/>
      <point x="6" y="388" type="curve"/>
      <point x="-8" y="407" type="line"/>
      <point x="38" y="443"/>
      <point x="99" y="490"/>
      <point x="155" y="490" type="curve" smooth="yes"/>
      <point x="178" y="490"/>
      <point x="194" y="479"/>
      <point x="210" y="465" type="curve" smooth="yes"/>
      <point x="222" y="454"/>
      <point x="223" y="432"/>
    </contour>
  </outline>
</glyph>
<glyph name="x" format="2">
  <advance width="550"/>
  <unicode hex="0078"/>
  <outline>
    <contour>
      <point x="482" y="489" type="line"/>
      <point x="519" y="453" type="line"/>
      <point x="519" y="443" type="line"/>
      <point x="439" y="396"/>
      <point x="370" y="332"/>
      <point x="311" y="267" type="curve"/>
      <point x="351" y="190"/>
      <point x="410" y="77"/>
      <point x="456" y="77" type="curve" smooth="yes"/>
      <point x="482" y="77"/>
      <point x="509" y="98"/>
      <point x="528" y="117" type="curve"/>
      <point x="538" y="117" type="line"/>
      <point x="549" y="103" type="line"/>
      <point x="515" y="53"/>
      <point x="460" y="-12"/>
      <point x="399" y="-12" type="curve" smooth="yes"/>
      <point x="353" y="-12"/>
      <point x="330" y="24"/>
      <point x="308" y="58" type="curve"/>
      <point x="241" y="182" type="line"/>
      <point x="231" y="182" type="line"/>
      <point x="184" y="126"/>
      <point x="143" y="62"/>
      <point x="114" y="-4" type="curve"/>
      <point x="98" y="-8" type="line"/>
      <point x="50" y="17" type="line"/>
      <point x="50" y="24" type="line"/>
      <point x="99" y="94"/>
      <point x="155" y="165"/>
      <point x="217" y="227" type="curve"/>
      <point x="195" y="276"/>
      <point x="158" y="341"/>
      <point x="148" y="358" type="curve" smooth="yes"/>
      <point x="133" y="384"/>
      <point x="111" y="418"/>
      <point x="82" y="418" type="curve" smooth="yes"/>
      <point x="63" y="418"/>
      <point x="33" y="400"/>
      <point x="13" y="386" type="curve"/>
      <point x="-5" y="410" type="line"/>
      <point x="36" y="446"/>
      <point x="88" y="491"/>
      <point x="141" y="491" type="curve" smooth="yes"/>
      <point x="160" y="491"/>
      <point x="179" y="489"/>
      <point x="194" y="476" type="curve" smooth="yes"/>
      <point x="236" y="438"/>
      <point x="265" y="367"/>
      <point x="290" y="310" type="curve"/>
      <point x="296" y="310" type="line"/>
      <point x="350" y="372"/>
      <point x="406" y="434"/>
      <point x="470" y="489" type="curve"/>
    </contour>
  </outline>
</glyph>
<glyph name="bar" format="2">
  <advance width="230"/>
  <unicode hex="007C"/>
  <outline>
    <contour>
      <point x="140" y="-159" type="line"/>
      <point x="90" y="-172" type="line"/>
      <point x="90" y="719" type="line"/>
      <point x="140" y="738" type="line"/>
    </contour>
  </outline>
</glyph>
<glyph name="braceright" format="2">
  <advance width="363"/>
  <unicode hex="007D"/>
  <outline>
    <contour>
      <point x="14" y="-178" type="curve"/>
      <point x="14" y="-161" type="line"/>
      <point x="44" y="-161"/>
      <point x="75" y="-160"/>
      <point x="104" y="-152" type="curve" smooth="yes"/>
      <point x="164" y="-135"/>
      <point x="165" y="-41"/>
      <point x="165" y="30" type="curve" smooth="yes"/>
      <point x="165" y="126"/>
      <point x="169" y="237"/>
      <point x="264" y="273" type="curve"/>
      <point x="264" y="274" type="line"/>
      <point x="124" y="325"/>
      <point x="183" y="495"/>
      <point x="157" y="636" type="curve" smooth="yes"/>
      <point x="142" y="715"/>
      <point x="77" y="712"/>
      <point x="14" y="712" type="curve"/>
      <point x="14" y="730" type="line"/>
      <point x="61" y="730"/>
      <point x="129" y="730"/>
      <point x="153" y="723" type="curve" smooth="yes"/>
      <point x="251" y="693"/>
      <point x="212" y="538"/>
      <point x="227" y="363" type="curve" smooth="yes"/>
      <point x="236" y="289"/>
      <point x="289" y="285"/>
      <point x="348" y="285" type="curve"/>
      <point x="348" y="259" type="line"/>
      <point x="314" y="259"/>
      <point x="269" y="256"/>
      <point x="249" y="236" type="curve" smooth="yes"/>
      <point x="221" y="208"/>
      <point x="221" y="103"/>
      <point x="221" y="34" type="curve" smooth="yes"/>
      <point x="221" y="-181"/>
      <point x="182" y="-178"/>
    </contour>
  </outline>
</glyph>
<glyph name="asciitilde" format="2">
  <advance width="739"/>
  <unicode hex="007E"/>
  <outline>
    <contour>
      <point x="411" y="214" type="curve" smooth="yes"/>
      <point x="300" y="277" type="line" smooth="yes"/>
      <point x="272" y="293"/>
      <point x="242" y="304"/>
      <point x="209" y="305" type="curve" smooth="yes"/>
      <point x="162" y="305"/>
      <point x="138" y="282"/>
      <point x="102" y="228" type="curve"/>
      <point x="83" y="240" type="line"/>
      <point x="110" y="290"/>
      <point x="155" y="347"/>
      <point x="223" y="347" type="curve" smooth="yes"/>
      <point x="273" y="347"/>
      <point x="329" y="317"/>
      <point x="376" y="291" type="curve" smooth="yes"/>
      <point x="459" y="245" type="line" smooth="yes"/>
      <point x="484" y="231"/>
      <point x="512" y="219"/>
      <point x="542" y="219" type="curve" smooth="yes"/>
      <point x="585" y="219"/>
      <point x="617" y="253"/>
      <point x="636" y="288" type="curve"/>
      <point x="657" y="275" type="line"/>
      <point x="633" y="227"/>
      <point x="589" y="178"/>
      <point x="530" y="178" type="curve" smooth="yes"/>
      <point x="487" y="178"/>
      <point x="446" y="194"/>
    </contour>
  </outline>
</glyph>
<glyph name="yen" format="2">
  <advance width="696"/>
  <unicode hex="00A5"/>
  <outline>
    <contour>
      <point x="272" y="375" type="line"/>
      <point x="97" y="375" type="line"/>
      <point x="104" y="420" type="line"/>
      <point x="253" y="420" type="line"/>
    </contour>
    <contour>
      <point x="427" y="420" type="line"/>
      <point x="577" y="420" type="line"/>
      <point x="571" y="375" type="line"/>
      <point x="400" y="375" type="line"/>
    </contour>
    <contour>
      <point x="569" y="243" type="line"/>
      <point x="99" y="243" type="line"/>
      <point x="106" y="288" type="line"/>
      <point x="575" y="288" type="line"/>
    </contour>
    <contour>
      <point x="675" y="695" type="line"/>
      <point x="392" y="323" type="line"/>
      <point x="392" y="224"/>
      <point x="396" y="129"/>
      <point x="401" y="28" type="curve"/>
      <point x="287" y="-4" type="line"/>
      <point x="269" y="5" type="line"/>
      <point x="271" y="107"/>
      <point x="275" y="296"/>
      <point x="275" y="297" type="curve"/>
      <point x="274" y="298"/>
      <point x="180" y="488"/>
      <point x="134" y="576" type="curve" smooth="yes"/>
      <point x="118" y="607"/>
      <point x="99" y="648"/>
      <point x="67" y="657" type="curve" smooth="yes"/>
      <point x="21" y="669" type="line"/>
      <point x="21" y="695" type="line"/>
      <point x="29" y="704" type="line"/>
      <point x="212" y="704" type="line"/>
      <point x="219" y="687"/>
      <point x="312" y="503"/>
      <point x="362" y="402" type="curve" smooth="yes"/>
      <point x="364" y="398"/>
      <point x="370" y="396"/>
      <point x="374" y="396" type="curve" smooth="yes"/>
      <point x="379" y="396"/>
      <point x="382" y="397"/>
      <point x="386" y="401" type="curve"/>
      <point x="572" y="690" type="line"/>
      <point x="674" y="707" type="line"/>
    </contour>
  </outline>
</glyph>
<glyph name="ordfeminine" format="2">
  <advance width="400"/>
  <unicode hex="00AA"/>
  <outline>
    <contour>
      <point x="337" y="590" type="line"/>
      <point x="346" y="585" type="line"/>
      <point x="340" y="526"/>
      <point x="335" y="466"/>
      <point x="335" y="407" type="curve" smooth="yes"/>
      <point x="335" y="349"/>
      <point x="336" y="317"/>
      <point x="359" y="317" type="curve" smooth="yes"/>
      <point x="375" y="317"/>
      <point x="394" y="333"/>
      <point x="408" y="345" type="curve"/>
      <point x="422" y="331" type="line"/>
      <point x="394" y="300"/>
      <point x="354" y="262"/>
      <point x="305" y="262" type="curve" smooth="yes"/>
      <point x="274" y="262"/>
      <point x="265" y="285"/>
      <point x="261" y="305" type="curve"/>
      <point x="252" y="308" type="line"/>
      <point x="214" y="283"/>
      <point x="168" y="260"/>
      <point x="120" y="260" type="curve" smooth="yes"/>
      <point x="43" y="260"/>
      <point x="19" y="339"/>
      <point x="19" y="394" type="curve" smooth="yes"/>
      <point x="19" y="529"/>
      <point x="81" y="594"/>
      <point x="191" y="594" type="curve" smooth="yes"/>
      <point x="229" y="594"/>
      <point x="263" y="584"/>
      <point x="294" y="566" type="curve"/>
    </contour>
    <contour>
      <point x="262" y="485" type="curve" smooth="yes"/>
      <point x="262" y="519"/>
      <point x="254" y="569"/>
      <point x="197" y="569" type="curve" smooth="yes"/>
      <point x="116" y="569"/>
      <point x="99" y="478"/>
      <point x="99" y="420" type="curve" smooth="yes"/>
      <point x="99" y="375"/>
      <point x="115" y="311"/>
      <point x="173" y="311" type="curve" smooth="yes"/>
      <point x="205" y="311"/>
      <point x="234" y="328"/>
      <point x="257" y="346" type="curve"/>
      <point x="261" y="375"/>
      <point x="262" y="441"/>
    </contour>
  </outline>
</glyph>
<glyph name="logicalnot" format="2">
  <advance width="868"/>
  <unicode hex="00AC"/>
  <outline>
    <contour>
      <point x="748" y="401" type="line"/>
      <point x="748" y="205" type="line"/>
      <point x="698" y="205" type="line"/>
      <point x="698" y="351" type="line"/>
      <point x="69" y="351" type="line"/>
      <point x="69" y="401" type="line"/>
    </contour>
  </outline>
</glyph>
<glyph name="uni00B2" format="2">
  <advance width="340"/>
  <unicode hex="00B2"/>
  <outline>
    <contour>
      <point x="342" y="341" type="line"/>
      <point x="321" y="273" type="line"/>
      <point x="-23" y="273" type="line"/>
      <point x="-23" y="286" type="line"/>
      <point x="47" y="339"/>
      <point x="109" y="396"/>
      <point x="162" y="461" type="curve" smooth="yes"/>
      <point x="194" y="501"/>
      <point x="221" y="548"/>
      <point x="221" y="597" type="curve" smooth="yes"/>
      <point x="221" y="639"/>
      <point x="202" y="687"/>
      <point x="138" y="687" type="curve" smooth="yes"/>
      <point x="100" y="687"/>
      <point x="64" y="665"/>
      <point x="33" y="647" type="curve"/>
      <point x="21" y="663" type="line"/>
      <point x="66" y="700"/>
      <point x="126" y="735"/>
      <point x="188" y="735" type="curve" smooth="yes"/>
      <point x="253" y="735"/>
      <point x="315" y="700"/>
      <point x="315" y="640" type="curve" smooth="yes"/>
      <point x="315" y="535"/>
      <point x="182" y="437"/>
      <point x="99" y="347" type="curve" smooth="yes"/>
      <point x="98" y="346"/>
      <point x="98" y="345"/>
      <point x="98" y="344" type="curve" smooth="yes"/>
      <point x="98" y="343"/>
      <point x="100" y="341"/>
      <point x="102" y="341" type="curve" smooth="yes"/>
    </contour>
  </outline>
</glyph>
<glyph name="uni00B9" format="2">
  <advance width="220"/>
  <unicode hex="00B9"/>
  <outline>
    <contour>
      <point x="-23" y="677" type="line"/>
      <point x="170" y="735" type="line"/>
      <point x="181" y="723" type="line"/>
      <point x="173" y="634"/>
      <point x="170" y="545"/>
      <point x="170" y="455" type="curve" smooth="yes"/>
      <point x="170" y="400"/>
      <point x="170" y="333"/>
      <point x="172" y="291" type="curve"/>
      <point x="96" y="264" type="line"/>
      <point x="82" y="273" type="line"/>
      <point x="91" y="350"/>
      <point x="95" y="428"/>
      <point x="95" y="505" type="curve" smooth="yes"/>
      <point x="95" y="549"/>
      <point x="95" y="591"/>
      <point x="92" y="635" type="curve" smooth="yes"/>
      <point x="91" y="647"/>
      <point x="80" y="656"/>
      <point x="68" y="656" type="curve" smooth="yes"/>
      <point x="-23" y="656" type="line"/>
    </contour>
  </outline>
</glyph>
<glyph name="ordmasculine" format="2">
  <advance width="388"/>
  <unicode hex="00BA"/>
  <outline>
    <contour>
      <point x="105" y="422" type="curve" smooth="yes"/>
      <point x="105" y="378"/>
      <point x="120" y="290"/>
      <point x="190" y="290" type="curve" smooth="yes"/>
      <point x="280" y="290"/>
      <point x="283" y="371"/>
      <point x="283" y="444" type="curve" smooth="yes"/>
      <point x="283" y="496"/>
      <point x="266" y="560"/>
      <point x="198" y="560" type="curve" smooth="yes"/>
      <point x="123" y="560"/>
      <point x="105" y="479"/>
    </contour>
    <contour>
      <point x="13" y="421" type="curve" smooth="yes"/>
      <point x="13" y="516"/>
      <point x="92" y="586"/>
      <point x="202" y="586" type="curve" smooth="yes"/>
      <point x="248" y="586"/>
      <point x="294" y="577"/>
      <point x="327" y="550" type="curve" smooth="yes"/>
      <point x="359" y="523"/>
      <point x="375" y="486"/>
      <point x="375" y="448" type="curve" smooth="yes"/>
      <point x="375" y="314"/>
      <point x="288" y="263"/>
      <point x="184" y="263" type="curve" smooth="yes"/>
      <point x="140" y="263"/>
      <point x="95" y="268"/>
      <point x="64" y="294" type="curve" smooth="yes"/>
      <point x="24" y="327"/>
      <point x="13" y="375"/>
    </contour>
  </outline>
</glyph>
<glyph name="onequarter" format="2">
  <advance width="842"/>
  <unicode hex="00BC"/>
  <outline>
    <contour>
      <point x="723" y="151" type="line"/>
      <point x="795" y="151" type="line"/>
      <point x="797" y="146" type="line"/>
      <point x="777" y="109" type="line"/>
      <point x="723" y="109" type="line"/>
      <point x="719" y="104" type="line"/>
      <point x="719" y="75"/>
      <point x="720" y="46"/>
      <point x="723" y="17" type="curve"/>
      <point x="649" y="-9" type="line"/>
      <point x="639" y="-2" type="line"/>
      <point x="643" y="33"/>
      <point x="645" y="69"/>
      <point x="645" y="105" type="curve"/>
      <point x="641" y="109" type="line"/>
      <point x="437" y="109" type="line"/>
      <point x="437" y="140" type="line"/>
      <point x="645" y="406" type="line"/>
      <point x="719" y="423" type="line"/>
      <point x="719" y="417" type="line"/>
      <point x="719" y="156" type="line"/>
    </contour>
    <contour>
      <point x="645" y="154" type="line"/>
      <point x="645" y="341" type="line"/>
      <point x="641" y="347" type="line"/>
      <point x="638" y="347"/>
      <point x="608" y="315"/>
      <point x="573" y="271" type="curve" smooth="yes"/>
      <point x="502" y="182"/>
      <point x="494" y="157"/>
      <point x="493" y="155" type="curve"/>
      <point x="497" y="151" type="line"/>
      <point x="641" y="151" type="line"/>
    </contour>
    <contour>
      <point x="25" y="652" type="line"/>
      <point x="214" y="705" type="line"/>
      <point x="224" y="694" type="line"/>
      <point x="216" y="612"/>
      <point x="214" y="530"/>
      <point x="214" y="447" type="curve" smooth="yes"/>
      <point x="214" y="397"/>
      <point x="214" y="333"/>
      <point x="216" y="295" type="curve"/>
      <point x="142" y="271" type="line"/>
      <point x="127" y="279" type="line"/>
      <point x="136" y="350"/>
      <point x="140" y="422"/>
      <point x="140" y="493" type="curve" smooth="yes"/>
      <point x="140" y="533"/>
      <point x="140" y="573"/>
      <point x="137" y="613" type="curve" smooth="yes"/>
      <point x="136" y="624"/>
      <point x="125" y="633"/>
      <point x="114" y="633" type="curve" smooth="yes"/>
      <point x="25" y="633" type="line"/>
    </contour>
    <component base="fraction" xOffset="407"/>
  </outline>
</glyph>
<glyph name="onehalf" format="2">
  <advance width="842"/>
  <unicode hex="00BD"/>
  <outline>
    <contour>
      <point x="823" y="62" type="line"/>
      <point x="802" y="0" type="line"/>
      <point x="464" y="0" type="line"/>
      <point x="464" y="12" type="line"/>
      <point x="532" y="61"/>
      <point x="594" y="113"/>
      <point x="646" y="173" type="curve" smooth="yes"/>
      <point x="678" y="210"/>
      <point x="704" y="253"/>
      <point x="704" y="299" type="curve" smooth="yes"/>
      <point x="704" y="337"/>
      <point x="685" y="382"/>
      <point x="623" y="382" type="curve" smooth="yes"/>
      <point x="586" y="382"/>
      <point x="550" y="362"/>
      <point x="520" y="345" type="curve"/>
      <point x="508" y="359" type="line"/>
      <point x="551" y="393"/>
      <point x="611" y="426"/>
      <point x="672" y="426" type="curve" smooth="yes"/>
      <point x="736" y="426"/>
      <point x="796" y="394"/>
      <point x="796" y="338" type="curve" smooth="yes"/>
      <point x="796" y="242"/>
      <point x="665" y="151"/>
      <point x="584" y="68" type="curve" smooth="yes"/>
      <point x="583" y="67"/>
      <point x="583" y="66"/>
      <point x="583" y="65" type="curve" smooth="yes"/>
      <point x="583" y="64"/>
      <point x="585" y="62"/>
      <point x="587" y="62" type="curve" smooth="yes"/>
    </contour>
    <contour>
      <point x="25" y="652" type="line"/>
      <point x="214" y="705" type="line"/>
      <point x="224" y="694" type="line"/>
      <point x="216" y="612"/>
      <point x="214" y="530"/>
      <point x="214" y="447" type="curve" smooth="yes"/>
      <point x="214" y="397"/>
      <point x="214" y="333"/>
      <point x="216" y="295" type="curve"/>
      <point x="142" y="271" type="line"/>
      <point x="127" y="279" type="line"/>
      <point x="136" y="350"/>
      <point x="140" y="422"/>
      <point x="140" y="493" type="curve" smooth="yes"/>
      <point x="140" y="533"/>
      <point x="140" y="573"/>
      <point x="137" y="613" type="curve" smooth="yes"/>
      <point x="136" y="624"/>
      <point x="125" y="633"/>
      <point x="114" y="633" type="curve" smooth="yes"/>
      <point x="25" y="633" type="line"/>
    </contour>
    <component base="fraction" xOffset="361"/>
  </outline>
</glyph>
<glyph name="threequarters" format="2">
  <advance width="842"/>
  <unicode hex="00BE"/>
  <outline>
    <contour>
      <point x="206" y="506" type="curve"/>
      <point x="206" y="501" type="line"/>
      <point x="303" y="494"/>
      <point x="356" y="463"/>
      <point x="356" y="405" type="curve" smooth="yes"/>
      <point x="356" y="316"/>
      <point x="256" y="266"/>
      <point x="157" y="266" type="curve" smooth="yes"/>
      <point x="110" y="266"/>
      <point x="63" y="278"/>
      <point x="28" y="303" type="curve"/>
      <point x="68" y="367" type="line"/>
      <point x="81" y="366" type="line"/>
      <point x="92" y="332"/>
      <point x="118" y="290"/>
      <point x="162" y="290" type="curve" smooth="yes"/>
      <point x="238" y="290"/>
      <point x="268" y="341"/>
      <point x="268" y="392" type="curve" smooth="yes"/>
      <point x="268" y="471"/>
      <point x="185" y="486"/>
      <point x="103" y="486" type="curve"/>
      <point x="103" y="504" type="line"/>
      <point x="162" y="507"/>
      <point x="246" y="530"/>
      <point x="246" y="596" type="curve" smooth="yes"/>
      <point x="246" y="633"/>
      <point x="213" y="657"/>
      <point x="170" y="657" type="curve" smooth="yes"/>
      <point x="135" y="657"/>
      <point x="102" y="640"/>
      <point x="73" y="624" type="curve"/>
      <point x="61" y="639" type="line"/>
      <point x="105" y="667"/>
      <point x="160" y="696"/>
      <point x="216" y="696" type="curve" smooth="yes"/>
      <point x="272" y="696"/>
      <point x="328" y="669"/>
      <point x="328" y="620" type="curve" smooth="yes"/>
      <point x="328" y="562"/>
      <point x="268" y="526"/>
    </contour>
    <contour>
      <point x="723" y="151" type="line"/>
      <point x="795" y="151" type="line"/>
      <point x="797" y="146" type="line"/>
      <point x="777" y="109" type="line"/>
      <point x="723" y="109" type="line"/>
      <point x="719" y="104" type="line"/>
      <point x="719" y="75"/>
      <point x="720" y="46"/>
      <point x="723" y="17" type="curve"/>
      <point x="649" y="-9" type="line"/>
      <point x="639" y="-2" type="line"/>
      <point x="643" y="33"/>
      <point x="645" y="69"/>
      <point x="645" y="105" type="curve"/>
      <point x="641" y="109" type="line"/>
      <point x="437" y="109" type="line"/>
      <point x="437" y="140" type="line"/>
      <point x="645" y="406" type="line"/>
      <point x="719" y="423" type="line"/>
      <point x="719" y="417" type="line"/>
      <point x="719" y="156" type="line"/>
    </contour>
    <contour>
      <point x="645" y="154" type="line"/>
      <point x="645" y="341" type="line"/>
      <point x="641" y="347" type="line"/>
      <point x="638" y="347"/>
      <point x="608" y="315"/>
      <point x="573" y="271" type="curve" smooth="yes"/>
      <point x="502" y="182"/>
      <point x="494" y="157"/>
      <point x="493" y="155" type="curve"/>
      <point x="497" y="151" type="line"/>
      <point x="641" y="151" type="line"/>
    </contour>
    <component base="fraction" xOffset="407"/>
  </outline>
</glyph>
<glyph name="questiondown" format="2">
  <advance width="432"/>
  <unicode hex="00BF"/>
  <outline>
    <contour>
      <point x="276" y="358" type="curve" smooth="yes"/>
      <point x="236" y="358"/>
      <point x="203" y="390"/>
      <point x="203" y="430" type="curve" smooth="yes"/>
      <point x="203" y="470"/>
      <point x="236" y="503"/>
      <point x="276" y="503" type="curve" smooth="yes"/>
      <point x="315" y="503"/>
      <point x="348" y="470"/>
      <point x="348" y="430" type="curve" smooth="yes"/>
      <point x="348" y="390"/>
      <point x="315" y="358"/>
    </contour>
    <contour>
      <point x="292" y="-55" type="line"/>
      <point x="370" y="-10" type="line"/>
      <point x="399" y="-24"/>
      <point x="406" y="-47"/>
      <point x="406" y="-73" type="curve" smooth="yes"/>
      <point x="406" y="-165"/>
      <point x="280" y="-220"/>
      <point x="182" y="-220" type="curve" smooth="yes"/>
      <point x="99" y="-220"/>
      <point x="22" y="-175"/>
      <point x="22" y="-98" type="curve" smooth="yes"/>
      <point x="22" y="-43"/>
      <point x="50" y="4"/>
      <point x="98" y="41" type="curve" smooth="yes"/>
      <point x="228" y="141" type="line" smooth="yes"/>
      <point x="248" y="157"/>
      <point x="265" y="180"/>
      <point x="265" y="204" type="curve" smooth="yes"/>
      <point x="265" y="224"/>
      <point x="255" y="240"/>
      <point x="237" y="255" type="curve"/>
      <point x="237" y="264" type="line"/>
      <point x="307" y="311" type="line"/>
      <point x="341" y="296"/>
      <point x="362" y="272"/>
      <point x="362" y="239" type="curve" smooth="yes"/>
      <point x="362" y="212"/>
      <point x="346" y="186"/>
      <point x="322" y="168" type="curve" smooth="yes"/>
      <point x="202" y="81" type="line" smooth="yes"/>
      <point x="148" y="42"/>
      <point x="133" y="-11"/>
      <point x="133" y="-70" type="curve" smooth="yes"/>
      <point x="133" y="-118"/>
      <point x="178" y="-180"/>
      <point x="236" y="-180" type="curve" smooth="yes"/>
      <point x="280" y="-180"/>
      <point x="324" y="-159"/>
      <point x="324" y="-112" type="curve" smooth="yes"/>
      <point x="324" y="-97"/>
      <point x="316" y="-79"/>
      <point x="304" y="-67" type="curve" smooth="yes"/>
    </contour>
  </outline>
</glyph>
<glyph name="AE" format="2">
  <advance width="908"/>
  <unicode hex="00C6"/>
  <outline>
    <contour>
      <point x="384" y="638" type="curve"/>
      <point x="385" y="639"/>
      <point x="385" y="641"/>
      <point x="385" y="643" type="curve" smooth="yes"/>
      <point x="385" y="644"/>
      <point x="384" y="647"/>
      <point x="382" y="647" type="curve"/>
      <point x="283" y="659" type="line"/>
      <point x="283" y="697" type="line"/>
      <point x="465" y="692"/>
      <point x="632" y="697"/>
      <point x="789" y="709" type="curve"/>
      <point x="802" y="704" type="line"/>
      <point x="802" y="642" type="line"/>
      <point x="790" y="631" type="line"/>
      <point x="713" y="636"/>
      <point x="563" y="645"/>
      <point x="562" y="645" type="curve" smooth="yes"/>
      <point x="526" y="645"/>
      <point x="527" y="622"/>
      <point x="527" y="595" type="curve" smooth="yes"/>
      <point x="527" y="415" type="line" smooth="yes"/>
      <point x="527" y="406"/>
      <point x="535" y="389"/>
      <point x="547" y="389" type="curve" smooth="yes"/>
      <point x="609" y="389"/>
      <point x="764" y="405"/>
      <point x="767" y="406" type="curve"/>
      <point x="768" y="406"/>
      <point x="776" y="401"/>
      <point x="780" y="398" type="curve"/>
      <point x="780" y="340" type="line"/>
      <point x="711" y="343"/>
      <point x="631" y="343"/>
      <point x="555" y="343" type="curve" smooth="yes"/>
      <point x="532" y="343"/>
      <point x="527" y="330"/>
      <point x="527" y="316" type="curve" smooth="yes"/>
      <point x="527" y="251"/>
      <point x="527" y="174"/>
      <point x="536" y="123" type="curve"/>
      <point x="541" y="82"/>
      <point x="562" y="61"/>
      <point x="603" y="61" type="curve" smooth="yes"/>
      <point x="618" y="61"/>
      <point x="888" y="76"/>
      <point x="888" y="76" type="curve"/>
      <point x="898" y="68" type="line"/>
      <point x="872" y="-8" type="line"/>
      <point x="758" y="-1"/>
      <point x="644" y="0"/>
      <point x="530" y="0" type="curve" smooth="yes"/>
      <point x="498" y="0"/>
      <point x="450" y="0"/>
      <point x="435" y="4" type="curve"/>
      <point x="420" y="12"/>
      <point x="402" y="32"/>
      <point x="402" y="51" type="curve" smooth="yes"/>
      <point x="402" y="268" type="line"/>
      <point x="247" y="268" type="line"/>
      <point x="213" y="204"/>
      <point x="171" y="97"/>
      <point x="137" y="10" type="curve"/>
      <point x="11" y="-1" type="line"/>
      <point x="9" y="9" type="line"/>
      <point x="141" y="205"/>
      <point x="274" y="429"/>
    </contour>
    <contour>
      <point x="402" y="320" type="line"/>
      <point x="402" y="540" type="line" smooth="yes"/>
      <point x="402" y="547"/>
      <point x="395" y="548"/>
      <point x="392" y="543" type="curve"/>
      <point x="287" y="335" type="line"/>
      <point x="285" y="332"/>
      <point x="285" y="330"/>
      <point x="285" y="326" type="curve" smooth="yes"/>
      <point x="285" y="323"/>
      <point x="292" y="320"/>
      <point x="296" y="320" type="curve" smooth="yes"/>
    </contour>
  </outline>
</glyph>
<glyph name="Eth" format="2">
  <advance width="848"/>
  <unicode hex="00D0"/>
  <outline>
    <contour>
      <point x="352" y="336" type="line"/>
      <point x="16" y="336" type="line"/>
      <point x="35" y="386" type="line"/>
      <point x="368" y="386" type="line"/>
    </contour>
    <component base="D" xOffset="16"/>
  </outline>
</glyph>
<glyph name="multiply" format="2">
  <advance width="623"/>
  <unicode hex="00D7"/>
  <outline>
    <contour>
      <point x="346" y="265" type="line"/>
      <point x="564" y="46" type="line"/>
      <point x="527" y="16" type="line"/>
      <point x="312" y="231" type="line"/>
      <point x="100" y="20" type="line"/>
      <point x="61" y="49" type="line"/>
      <point x="278" y="265" type="line"/>
      <point x="61" y="481" type="line"/>
      <point x="100" y="510" type="line"/>
      <point x="312" y="299" type="line"/>
      <point x="524" y="511" type="line"/>
      <point x="562" y="481" type="line"/>
    </contour>
  </outline>
</glyph>
<glyph name="Oslash" format="2">
  <advance width="830"/>
  <unicode hex="00D8"/>
  <anchor x="435" y="710" name="top"/>
  <anchor x="415" y="0" name="bottom"/>
  <outline>
    <contour>
      <point x="632" y="791" type="line"/>
      <point x="637" y="780" type="line"/>
      <point x="248" y="-116" type="line"/>
      <point x="202" y="-104" type="line"/>
      <point x="199" y="-90" type="line"/>
      <point x="585" y="798" type="line"/>
      <point x="596" y="800" type="line"/>
    </contour>
    <component base="O"/>
  </outline>
</glyph>
<glyph name="ae" format="2">
  <advance width="826"/>
  <unicode hex="00E6"/>
  <outline>
    <contour>
      <point x="780" y="101" type="line"/>
      <point x="791" y="82" type="line"/>
      <point x="725" y="35"/>
      <point x="644" y="-16"/>
      <point x="562" y="-16" type="curve" smooth="yes"/>
      <point x="505" y="-16"/>
      <point x="446" y="-2"/>
      <point x="406" y="35" type="curve" smooth="yes"/>
      <point x="395" y="45"/>
      <point x="386" y="57"/>
      <point x="378" y="69" type="curve"/>
      <point x="322" y="28"/>
      <point x="253" y="-15"/>
      <point x="177" y="-15" type="curve" smooth="yes"/>
      <point x="69" y="-15"/>
      <point x="35" y="108"/>
      <point x="35" y="191" type="curve" smooth="yes"/>
      <point x="35" y="393"/>
      <point x="118" y="498"/>
      <point x="277" y="498" type="curve" smooth="yes"/>
      <point x="346" y="498"/>
      <point x="401" y="470"/>
      <point x="449" y="438" type="curve"/>
      <point x="493" y="473"/>
      <point x="552" y="495"/>
      <point x="625" y="495" type="curve" smooth="yes"/>
      <point x="719" y="495"/>
      <point x="816" y="459"/>
      <point x="816" y="349" type="curve" smooth="yes"/>
      <point x="816" y="328"/>
      <point x="806" y="318"/>
      <point x="787" y="312" type="curve"/>
      <point x="786" y="312"/>
      <point x="572" y="246"/>
      <point x="465" y="213" type="curve"/>
      <point x="465" y="133"/>
      <point x="516" y="52"/>
      <point x="613" y="52" type="curve" smooth="yes"/>
      <point x="668" y="52"/>
      <point x="719" y="77"/>
      <point x="765" y="105" type="curve"/>
    </contour>
    <contour>
      <point x="478" y="258" type="curve"/>
      <point x="663" y="317"/>
      <point x="693" y="315"/>
      <point x="693" y="344" type="curve" smooth="yes"/>
      <point x="693" y="395"/>
      <point x="667" y="455"/>
      <point x="602" y="455" type="curve" smooth="yes"/>
      <point x="494" y="455"/>
      <point x="465" y="335"/>
      <point x="465" y="262" type="curve" smooth="yes"/>
      <point x="465" y="258"/>
      <point x="468" y="257"/>
      <point x="472" y="257" type="curve" smooth="yes"/>
      <point x="474" y="257"/>
      <point x="476" y="258"/>
    </contour>
    <contour>
      <point x="378" y="349" type="curve"/>
      <point x="375" y="399"/>
      <point x="358" y="460"/>
      <point x="286" y="460" type="curve" smooth="yes"/>
      <point x="171" y="460"/>
      <point x="148" y="321"/>
      <point x="148" y="230" type="curve" smooth="yes"/>
      <point x="148" y="161"/>
      <point x="169" y="63"/>
      <point x="253" y="63" type="curve" smooth="yes"/>
      <point x="293" y="63"/>
      <point x="331" y="84"/>
      <point x="359" y="108" type="curve"/>
      <point x="348" y="139"/>
      <point x="345" y="172"/>
      <point x="345" y="204" type="curve" smooth="yes"/>
      <point x="345" y="255"/>
      <point x="356" y="305"/>
    </contour>
  </outline>
</glyph>
<glyph name="eth" format="2">
  <advance width="537"/>
  <unicode hex="00F0"/>
  <outline>
    <contour>
      <point x="460" y="634" type="line"/>
      <point x="152" y="502" type="line"/>
      <point x="149" y="555" type="line"/>
      <point x="456" y="687" type="line"/>
    </contour>
    <contour>
      <point x="195" y="697" type="line"/>
      <point x="362" y="624"/>
      <point x="496" y="519"/>
      <point x="500" y="279" type="curve" smooth="yes"/>
      <point x="503" y="145"/>
      <point x="437" y="-18"/>
      <point x="254" y="-18" type="curve" smooth="yes"/>
      <point x="191" y="-18"/>
      <point x="135" y="3"/>
      <point x="91" y="43" type="curve" smooth="yes"/>
      <point x="43" y="86"/>
      <point x="29" y="164"/>
      <point x="29" y="225" type="curve" smooth="yes"/>
      <point x="29" y="291"/>
      <point x="46" y="360"/>
      <point x="99" y="408" type="curve" smooth="yes"/>
      <point x="150" y="455"/>
      <point x="219" y="477"/>
      <point x="291" y="477" type="curve" smooth="yes"/>
      <point x="298" y="477"/>
      <point x="314" y="476"/>
      <point x="330" y="474" type="curve"/>
      <point x="336" y="484" type="line"/>
      <point x="307" y="551"/>
      <point x="258" y="615"/>
      <point x="176" y="663" type="curve"/>
    </contour>
    <contour>
      <point x="353" y="430" type="curve"/>
      <point x="337" y="436"/>
      <point x="319" y="441"/>
      <point x="302" y="441" type="curve" smooth="yes"/>
      <point x="181" y="441"/>
      <point x="147" y="342"/>
      <point x="147" y="240" type="curve" smooth="yes"/>
      <point x="147" y="165"/>
      <point x="166" y="21"/>
      <point x="271" y="21" type="curve" smooth="yes"/>
      <point x="377" y="21"/>
      <point x="386" y="166"/>
      <point x="386" y="261" type="curve" smooth="yes"/>
      <point x="386" y="319"/>
      <point x="374" y="376"/>
    </contour>
  </outline>
</glyph>
<glyph name="divide" format="2">
  <advance width="878"/>
  <unicode hex="00F7"/>
  <outline>
    <contour>
      <point x="373" y="5" type="curve" smooth="yes"/>
      <point x="373" y="41"/>
      <point x="403" y="71"/>
      <point x="439" y="71" type="curve" smooth="yes"/>
      <point x="475" y="71"/>
      <point x="505" y="41"/>
      <point x="505" y="5" type="curve" smooth="yes"/>
      <point x="505" y="-31"/>
      <point x="475" y="-61"/>
      <point x="439" y="-61" type="curve" smooth="yes"/>
      <point x="403" y="-61"/>
      <point x="373" y="-31"/>
    </contour>
    <contour>
      <point x="373" y="512" type="curve" smooth="yes"/>
      <point x="373" y="548"/>
      <point x="403" y="578"/>
      <point x="439" y="578" type="curve" smooth="yes"/>
      <point x="475" y="578"/>
      <point x="505" y="548"/>
      <point x="505" y="512" type="curve" smooth="yes"/>
      <point x="505" y="476"/>
      <point x="475" y="446"/>
      <point x="439" y="446" type="curve" smooth="yes"/>
      <point x="403" y="446"/>
      <point x="373" y="476"/>
    </contour>
    <component base="minus" xOffset="-62"/>
  </outline>
</glyph>
<glyph name="oslash" format="2">
  <advance width="575"/>
  <unicode hex="00F8"/>
  <anchor x="295" y="476" name="top"/>
  <outline>
    <contour>
      <point x="454" y="556" type="line"/>
      <point x="458" y="545" type="line"/>
      <point x="176" y="-104" type="line"/>
      <point x="130" y="-92" type="line"/>
      <point x="128" y="-78" type="line"/>
      <point x="406" y="563" type="line"/>
      <point x="418" y="565" type="line"/>
    </contour>
    <component base="o"/>
  </outline>
</glyph>
<glyph name="OE" format="2">
  <advance width="1091"/>
  <unicode hex="0152"/>
  <outline>
    <contour>
      <point x="1071" y="76" type="curve"/>
      <point x="1081" y="68" type="line"/>
      <point x="1055" y="-8" type="line"/>
      <point x="941" y="-1"/>
      <point x="827" y="0"/>
      <point x="713" y="0" type="curve" smooth="yes"/>
      <point x="681" y="0"/>
      <point x="440" y="0"/>
      <point x="425" y="4" type="curve"/>
      <point x="410" y="12"/>
      <point x="585" y="47"/>
      <point x="585" y="66" type="curve" smooth="yes"/>
      <point x="585" y="480" type="line" smooth="yes"/>
      <point x="585" y="524"/>
      <point x="585" y="594"/>
      <point x="581" y="612" type="curve" smooth="yes"/>
      <point x="569" y="657"/>
      <point x="523" y="661"/>
      <point x="487" y="666" type="curve"/>
      <point x="487" y="689" type="line"/>
      <point x="494" y="696" type="line"/>
      <point x="655" y="696"/>
      <point x="859" y="696"/>
      <point x="972" y="709" type="curve"/>
      <point x="985" y="704" type="line"/>
      <point x="985" y="642" type="line"/>
      <point x="973" y="631" type="line"/>
      <point x="896" y="636"/>
      <point x="746" y="645"/>
      <point x="745" y="645" type="curve" smooth="yes"/>
      <point x="709" y="645"/>
      <point x="710" y="622"/>
      <point x="710" y="595" type="curve" smooth="yes"/>
      <point x="710" y="415" type="line" smooth="yes"/>
      <point x="710" y="406"/>
      <point x="718" y="389"/>
      <point x="730" y="389" type="curve" smooth="yes"/>
      <point x="792" y="389"/>
      <point x="947" y="405"/>
      <point x="950" y="406" type="curve"/>
      <point x="951" y="406"/>
      <point x="959" y="401"/>
      <point x="963" y="398" type="curve"/>
      <point x="963" y="340" type="line"/>
      <point x="894" y="343"/>
      <point x="814" y="343"/>
      <point x="738" y="343" type="curve" smooth="yes"/>
      <point x="715" y="343"/>
      <point x="710" y="330"/>
      <point x="710" y="316" type="curve" smooth="yes"/>
      <point x="710" y="251"/>
      <point x="710" y="174"/>
      <point x="719" y="123" type="curve"/>
      <point x="724" y="82"/>
      <point x="745" y="61"/>
      <point x="786" y="61" type="curve" smooth="yes"/>
      <point x="801" y="61"/>
      <point x="1071" y="76"/>
    </contour>
    <contour>
      <point x="696" y="114" type="line"/>
      <point x="615" y="24"/>
      <point x="490" y="-15"/>
      <point x="357" y="-15" type="curve" smooth="yes"/>
      <point x="277" y="-15"/>
      <point x="197" y="7"/>
      <point x="140" y="59" type="curve" smooth="yes"/>
      <point x="66" y="127"/>
      <point x="40" y="233"/>
      <point x="40" y="330" type="curve" smooth="yes"/>
      <point x="40" y="438"/>
      <point x="76" y="553"/>
      <point x="161" y="630" type="curve" smooth="yes"/>
      <point x="238" y="700"/>
      <point x="338" y="720"/>
      <point x="457" y="720" type="curve" smooth="yes"/>
      <point x="542" y="720"/>
      <point x="629" y="699"/>
      <point x="690" y="644" type="curve"/>
    </contour>
    <contour>
      <point x="178" y="366" type="curve" smooth="yes"/>
      <point x="178" y="229"/>
      <point x="239" y="31"/>
      <point x="422" y="31" type="curve" smooth="yes"/>
      <point x="598" y="31"/>
      <point x="647" y="187"/>
      <point x="647" y="325" type="curve" smooth="yes"/>
      <point x="647" y="464"/>
      <point x="601" y="680"/>
      <point x="415" y="680" type="curve" smooth="yes"/>
      <point x="253" y="680"/>
      <point x="178" y="506"/>
    </contour>
  </outline>
</glyph>
<glyph name="gravecomb" format="2">
  <unicode hex="0300"/>
  <anchor x="0" y="485" name="_top"/>
  <anchor x="0" y="711" name="top"/>
  <outline>
    <contour>
      <point x="71" y="511" type="line"/>
      <point x="91" y="546" type="line"/>
      <point x="-19" y="709" type="line"/>
      <point x="-32" y="711" type="line"/>
      <point x="-91" y="665" type="line"/>
    </contour>
  </outline>
</glyph>
<glyph name="tildecomb" format="2">
  <unicode hex="0303"/>
  <anchor x="-1" y="485" name="_top"/>
  <anchor x="-1" y="632" name="top"/>
  <outline>
    <contour>
      <point x="-2" y="610" type="curve" smooth="yes"/>
      <point x="45" y="589" type="line" smooth="yes"/>
      <point x="59" y="583"/>
      <point x="75" y="578"/>
      <point x="91" y="580" type="curve" smooth="yes"/>
      <point x="115" y="583"/>
      <point x="122" y="596"/>
      <point x="131" y="619" type="curve"/>
      <point x="146" y="613" type="line"/>
      <point x="143" y="584"/>
      <point x="122" y="528"/>
      <point x="90" y="523" type="curve" smooth="yes"/>
      <point x="68" y="520"/>
      <point x="46" y="526"/>
      <point x="26" y="535" type="curve" smooth="yes"/>
      <point x="-37" y="565" type="line" smooth="yes"/>
      <point x="-52" y="572"/>
      <point x="-70" y="576"/>
      <point x="-87" y="574" type="curve" smooth="yes"/>
      <point x="-111" y="571"/>
      <point x="-119" y="559"/>
      <point x="-131" y="526" type="curve"/>
      <point x="-148" y="533" type="line"/>
      <point x="-140" y="568"/>
      <point x="-120" y="626"/>
      <point x="-85" y="631" type="curve" smooth="yes"/>
      <point x="-59" y="635"/>
      <point x="-28" y="621"/>
    </contour>
  </outline>
</glyph>
<glyph name="uni0304" format="2">
  <unicode hex="0304"/>
  <anchor x="0" y="485" name="_top"/>
  <anchor x="0" y="601" name="top"/>
  <outline>
    <contour>
      <point x="125" y="551" type="line"/>
      <point x="-141" y="551" type="line"/>
      <point x="-122" y="601" type="line"/>
      <point x="141" y="601" type="line"/>
    </contour>
  </outline>
</glyph>
<glyph name="uni0308" format="2">
  <unicode hex="0308"/>
  <anchor x="0" y="485" name="_top"/>
  <anchor x="0" y="650" name="top"/>
  <outline>
    <contour>
      <point x="34" y="584" type="curve" smooth="yes"/>
      <point x="34" y="620"/>
      <point x="64" y="650"/>
      <point x="100" y="650" type="curve" smooth="yes"/>
      <point x="136" y="650"/>
      <point x="166" y="620"/>
      <point x="166" y="584" type="curve" smooth="yes"/>
      <point x="166" y="548"/>
      <point x="136" y="518"/>
      <point x="100" y="518" type="curve" smooth="yes"/>
      <point x="64" y="518"/>
      <point x="34" y="548"/>
    </contour>
    <contour>
      <point x="-166" y="584" type="curve" smooth="yes"/>
      <point x="-166" y="620"/>
      <point x="-136" y="650"/>
      <point x="-100" y="650" type="curve" smooth="yes"/>
      <point x="-64" y="650"/>
      <point x="-34" y="620"/>
      <point x="-34" y="584" type="curve" smooth="yes"/>
      <point x="-34" y="548"/>
      <point x="-64" y="518"/>
      <point x="-100" y="518" type="curve" smooth="yes"/>
      <point x="-136" y="518"/>
      <point x="-166" y="548"/>
    </contour>
  </outline>
</glyph>
<glyph name="uni030A" format="2">
  <unicode hex="030A"/>
  <anchor x="0" y="485" name="_top"/>
  <anchor x="0" y="681" name="top"/>
  <outline>
    <contour>
      <point x="-106" y="575" type="curve" smooth="yes"/>
      <point x="-106" y="633"/>
      <point x="-58" y="681"/>
      <point x="0" y="681" type="curve" smooth="yes"/>
      <point x="58" y="681"/>
      <point x="106" y="633"/>
      <point x="106" y="575" type="curve" smooth="yes"/>
      <point x="106" y="517"/>
      <point x="58" y="470"/>
      <point x="0" y="470" type="curve" smooth="yes"/>
      <point x="-58" y="470"/>
      <point x="-106" y="517"/>
    </contour>
    <contour>
      <point x="-70" y="575" type="curve" smooth="yes"/>
      <point x="-70" y="537"/>
      <point x="-39" y="505"/>
      <point x="0" y="505" type="curve" smooth="yes"/>
      <point x="38" y="505"/>
      <point x="70" y="537"/>
      <point x="70" y="575" type="curve" smooth="yes"/>
      <point x="70" y="614"/>
      <point x="38" y="646"/>
      <point x="0" y="646" type="curve" smooth="yes"/>
      <point x="-39" y="646"/>
      <point x="-70" y="614"/>
    </contour>
  </outline>
</glyph>
<glyph name="uni0327" format="2">
  <unicode hex="0327"/>
  <anchor x="5" y="0" name="_bottom"/>
  <anchor x="5" y="-259" name="bottom"/>
  <outline>
    <contour>
      <point x="-29" y="6" type="line"/>
      <point x="25" y="6" type="line"/>
      <point x="5" y="-41" type="line"/>
      <point x="18" y="-46"/>
      <point x="59" y="-69"/>
      <point x="78" y="-92" type="curve" smooth="yes"/>
      <point x="101" y="-120"/>
      <point x="110" y="-156"/>
      <point x="84" y="-192" type="curve" smooth="yes"/>
      <point x="51" y="-236"/>
      <point x="-29" y="-249"/>
      <point x="-84" y="-259" type="curve"/>
      <point x="-90" y="-244" type="line"/>
      <point x="-85" y="-234" type="line"/>
      <point x="-59" y="-224"/>
      <point x="-43" y="-217"/>
      <point x="-29" y="-199" type="curve" smooth="yes"/>
      <point x="-1" y="-161"/>
      <point x="-49" y="-133"/>
      <point x="-86" y="-122" type="curve"/>
    </contour>
  </outline>
</glyph>
<glyph name="Theta" format="2">
  <advance width="873"/>
  <unicode hex="0398"/>
  <outline>
    <contour>
      <point x="569" y="429" type="curve" smooth="yes"/>
      <point x="584" y="473" type="line"/>
      <point x="605" y="473" type="line"/>
      <point x="605" y="229" type="line"/>
      <point x="579" y="229" type="line"/>
      <point x="565" y="285" type="line" smooth="yes"/>
      <point x="559" y="308"/>
      <point x="510" y="303"/>
      <point x="459" y="303" type="curve" smooth="yes"/>
      <point x="406" y="303"/>
      <point x="316" y="310"/>
      <point x="307" y="284" type="curve" smooth="yes"/>
      <point x="288" y="229" type="line"/>
      <point x="269" y="229" type="line"/>
      <point x="269" y="473" type="line"/>
      <point x="295" y="473" type="line"/>
      <point x="307" y="422" type="line" smooth="yes"/>
      <point x="311" y="406"/>
      <point x="413" y="409"/>
      <point x="466" y="409" type="curve" smooth="yes"/>
      <point x="504" y="409"/>
      <point x="560" y="402"/>
    </contour>
    <contour>
      <point x="389" y="-14" type="curve" smooth="yes"/>
      <point x="299" y="-14"/>
      <point x="205" y="5"/>
      <point x="140" y="64" type="curve" smooth="yes"/>
      <point x="66" y="131"/>
      <point x="38" y="227"/>
      <point x="38" y="321" type="curve" smooth="yes"/>
      <point x="38" y="424"/>
      <point x="72" y="526"/>
      <point x="152" y="598" type="curve" smooth="yes"/>
      <point x="236" y="674"/>
      <point x="364" y="699"/>
      <point x="482" y="699" type="curve" smooth="yes"/>
      <point x="576" y="699"/>
      <point x="673" y="682"/>
      <point x="741" y="621" type="curve" smooth="yes"/>
      <point x="809" y="559"/>
      <point x="833" y="470"/>
      <point x="833" y="383" type="curve" smooth="yes"/>
      <point x="833" y="276"/>
      <point x="806" y="166"/>
      <point x="721" y="89" type="curve" smooth="yes"/>
      <point x="634" y="10"/>
      <point x="510" y="-14"/>
    </contour>
    <contour>
      <point x="454" y="32" type="curve" smooth="yes"/>
      <point x="519" y="31"/>
      <point x="578" y="56"/>
      <point x="624" y="98" type="curve" smooth="yes"/>
      <point x="685" y="153"/>
      <point x="699" y="251"/>
      <point x="699" y="331" type="curve" smooth="yes"/>
      <point x="699" y="546"/>
      <point x="593" y="655"/>
      <point x="429" y="655" type="curve" smooth="yes"/>
      <point x="214" y="655"/>
      <point x="176" y="486"/>
      <point x="176" y="348" type="curve" smooth="yes"/>
      <point x="176" y="200"/>
      <point x="259" y="32"/>
    </contour>
  </outline>
</glyph>
<glyph name="Lambda" format="2">
  <advance width="816"/>
  <unicode hex="039B"/>
  <outline>
    <contour>
      <point x="395" y="672" type="curve"/>
      <point x="500" y="694" type="line"/>
      <point x="543" y="524"/>
      <point x="586" y="350"/>
      <point x="659" y="188" type="curve" smooth="yes"/>
      <point x="683" y="134"/>
      <point x="715" y="62"/>
      <point x="777" y="62" type="curve" smooth="yes"/>
      <point x="787" y="62"/>
      <point x="797" y="63"/>
      <point x="806" y="66" type="curve"/>
      <point x="808" y="39" type="line"/>
      <point x="621" y="-13" type="line"/>
      <point x="593" y="-2"/>
      <point x="571" y="19"/>
      <point x="562" y="45" type="curve" smooth="yes"/>
      <point x="550" y="77"/>
      <point x="456" y="374"/>
      <point x="404" y="539" type="curve"/>
      <point x="389" y="539" type="line"/>
      <point x="293" y="366"/>
      <point x="214" y="200"/>
      <point x="134" y="20" type="curve"/>
      <point x="22" y="-4" type="line"/>
      <point x="10" y="16" type="line"/>
      <point x="151" y="228"/>
      <point x="279" y="447"/>
    </contour>
  </outline>
</glyph>
<glyph name="Xi" format="2">
  <advance width="684"/>
  <unicode hex="039E"/>
  <outline>
    <contour>
      <point x="641" y="186" type="line"/>
      <point x="620" y="-6" type="line"/>
      <point x="68" y="-6" type="line"/>
      <point x="47" y="186" type="line"/>
      <point x="73" y="188" type="line"/>
      <point x="90" y="136" type="line" smooth="yes"/>
      <point x="97" y="115"/>
      <point x="122" y="106"/>
      <point x="146" y="106" type="curve" smooth="yes"/>
      <point x="540" y="106" type="line" smooth="yes"/>
      <point x="561" y="106"/>
      <point x="584" y="113"/>
      <point x="592" y="133" type="curve" smooth="yes"/>
      <point x="613" y="189" type="line"/>
    </contour>
    <contour>
      <point x="167" y="413" type="line"/>
      <point x="521" y="413" type="line"/>
      <point x="525" y="406" type="line"/>
      <point x="495" y="308" type="line"/>
      <point x="225" y="307" type="line" smooth="yes"/>
      <point x="198" y="307"/>
      <point x="170" y="305"/>
      <point x="143" y="302" type="curve"/>
      <point x="135" y="308" type="line"/>
    </contour>
    <contour>
      <point x="616" y="693" type="line"/>
      <point x="638" y="505" type="line"/>
      <point x="615" y="505" type="line"/>
      <point x="593" y="547" type="line" smooth="yes"/>
      <point x="578" y="575"/>
      <point x="533" y="584"/>
      <point x="497" y="584" type="curve" smooth="yes"/>
      <point x="159" y="585" type="line" smooth="yes"/>
      <point x="137" y="585"/>
      <point x="112" y="582"/>
      <point x="102" y="562" type="curve" smooth="yes"/>
      <point x="74" y="505" type="line"/>
      <point x="44" y="505" type="line"/>
      <point x="64" y="693" type="line"/>
    </contour>
  </outline>
</glyph>
<glyph name="Pi" format="2">
  <advance width="800"/>
  <unicode hex="03A0"/>
  <outline>
    <contour>
      <point x="703" y="214" type="curve"/>
      <point x="703" y="19" type="line"/>
      <point x="577" y="-14" type="line"/>
      <point x="561" y="-3" type="line"/>
      <point x="566" y="191" type="line" smooth="yes"/>
      <point x="567" y="231"/>
      <point x="568" y="440"/>
      <point x="568" y="601" type="curve" smooth="yes"/>
      <point x="568" y="617"/>
      <point x="552" y="623"/>
      <point x="530" y="623" type="curve" smooth="yes"/>
      <point x="263" y="623" type="line" smooth="yes"/>
      <point x="247" y="623"/>
      <point x="230" y="615"/>
      <point x="228" y="599" type="curve" smooth="yes"/>
      <point x="223" y="562"/>
      <point x="223" y="411"/>
      <point x="223" y="316" type="curve" smooth="yes"/>
      <point x="223" y="220"/>
      <point x="225" y="124"/>
      <point x="231" y="27" type="curve"/>
      <point x="109" y="-9" type="line"/>
      <point x="94" y="1" type="line"/>
      <point x="97" y="103"/>
      <point x="98" y="206"/>
      <point x="98" y="309" type="curve" smooth="yes"/>
      <point x="98" y="408"/>
      <point x="95" y="507"/>
      <point x="95" y="605" type="curve" smooth="yes"/>
      <point x="95" y="619"/>
      <point x="90" y="633"/>
      <point x="75" y="638" type="curve" smooth="yes"/>
      <point x="8" y="659" type="line"/>
      <point x="8" y="690" type="line"/>
      <point x="79" y="687"/>
      <point x="149" y="686"/>
      <point x="220" y="686" type="curve" smooth="yes"/>
      <point x="792" y="686" type="line"/>
      <point x="790" y="653" type="line"/>
      <point x="730" y="641" type="line" smooth="yes"/>
      <point x="677" y="630"/>
      <point x="692" y="527"/>
      <point x="692" y="471" type="curve" smooth="yes"/>
      <point x="692" y="385"/>
      <point x="692" y="288"/>
    </contour>
  </outline>
</glyph>
<glyph name="Psi" format="2">
  <advance width="819"/>
  <unicode hex="03A8"/>
  <outline>
    <contour>
      <point x="756" y="592" type="curve" smooth="yes"/>
      <point x="720" y="418" type="line" smooth="yes"/>
      <point x="700" y="324"/>
      <point x="671" y="278"/>
      <point x="498" y="252" type="curve"/>
      <point x="491" y="243" type="line"/>
      <point x="491" y="184"/>
      <point x="487" y="57"/>
      <point x="525" y="46" type="curve" smooth="yes"/>
      <point x="601" y="26" type="line"/>
      <point x="601" y="-1" type="line"/>
      <point x="270" y="-1" type="line"/>
      <point x="270" y="28" type="line"/>
      <point x="341" y="44" type="line" smooth="yes"/>
      <point x="357" y="47"/>
      <point x="368" y="59"/>
      <point x="368" y="74" type="curve" smooth="yes"/>
      <point x="368" y="240" type="line"/>
      <point x="361" y="249" type="line"/>
      <point x="324" y="254"/>
      <point x="286" y="259"/>
      <point x="251" y="270" type="curve" smooth="yes"/>
      <point x="12" y="342"/>
      <point x="206" y="649"/>
      <point x="56" y="649" type="curve" smooth="yes"/>
      <point x="48" y="649"/>
      <point x="28" y="646"/>
      <point x="13" y="640" type="curve"/>
      <point x="7" y="664" type="line"/>
      <point x="65" y="678"/>
      <point x="167" y="703"/>
      <point x="186" y="703" type="curve" smooth="yes"/>
      <point x="269" y="703"/>
      <point x="243" y="597"/>
      <point x="246" y="511" type="curve" smooth="yes"/>
      <point x="249" y="432"/>
      <point x="273" y="315"/>
      <point x="363" y="285" type="curve"/>
      <point x="372" y="291" type="line"/>
      <point x="372" y="420"/>
      <point x="372" y="607"/>
      <point x="368" y="666" type="curve"/>
      <point x="482" y="698" type="line"/>
      <point x="497" y="686" type="line"/>
      <point x="493" y="559"/>
      <point x="493" y="420"/>
      <point x="493" y="287" type="curve"/>
      <point x="501" y="281" type="line"/>
      <point x="557" y="295"/>
      <point x="588" y="344"/>
      <point x="596" y="394" type="curve" smooth="yes"/>
      <point x="624" y="581" type="line" smooth="yes"/>
      <point x="628" y="607"/>
      <point x="635" y="633"/>
      <point x="652" y="655" type="curve"/>
      <point x="702" y="670"/>
      <point x="754" y="682"/>
      <point x="807" y="688" type="curve"/>
      <point x="803" y="661" type="line"/>
      <point x="773" y="650"/>
      <point x="762" y="620"/>
    </contour>
  </outline>
</glyph>
<glyph name="gamma" format="2">
  <advance width="622"/>
  <unicode hex="03B3"/>
  <outline>
    <contour>
      <point x="303" y="-201" type="line"/>
      <point x="231" y="-152" type="line"/>
      <point x="292" y="-7" type="line"/>
      <point x="286" y="68"/>
      <point x="271" y="174"/>
      <point x="249" y="246" type="curve" smooth="yes"/>
      <point x="229" y="310"/>
      <point x="197" y="408"/>
      <point x="110" y="408" type="curve" smooth="yes"/>
      <point x="75" y="408"/>
      <point x="38" y="387"/>
      <point x="12" y="366" type="curve"/>
      <point x="-5" y="391" type="line"/>
      <point x="44" y="435"/>
      <point x="106" y="471"/>
      <point x="176" y="471" type="curve" smooth="yes"/>
      <point x="344" y="471"/>
      <point x="359" y="285"/>
      <point x="363" y="133" type="curve"/>
      <point x="372" y="131" type="line"/>
      <point x="438" y="241"/>
      <point x="487" y="342"/>
      <point x="525" y="463" type="curve"/>
      <point x="544" y="475" type="line"/>
      <point x="623" y="444" type="line"/>
      <point x="558" y="328"/>
      <point x="488" y="233"/>
      <point x="420" y="138" type="curve" smooth="yes"/>
      <point x="405" y="118"/>
      <point x="376" y="61"/>
      <point x="366" y="33" type="curve"/>
      <point x="366" y="-27"/>
      <point x="366" y="-112"/>
      <point x="358" y="-166" type="curve"/>
    </contour>
  </outline>
</glyph>
<glyph name="epsilon" format="2">
  <advance width="417"/>
  <unicode hex="03B5"/>
  <outline>
    <contour>
      <point x="283" y="286" type="curve"/>
      <point x="251" y="222" type="line"/>
      <point x="238" y="226"/>
      <point x="200" y="233"/>
      <point x="186" y="233" type="curve" smooth="yes"/>
      <point x="143" y="233"/>
      <point x="125" y="196"/>
      <point x="125" y="168" type="curve" smooth="yes"/>
      <point x="125" y="97"/>
      <point x="189" y="61"/>
      <point x="260" y="61" type="curve" smooth="yes"/>
      <point x="312" y="61"/>
      <point x="361" y="85"/>
      <point x="401" y="114" type="curve"/>
      <point x="409" y="113" type="line"/>
      <point x="421" y="96" type="line"/>
      <point x="354" y="37"/>
      <point x="267" y="-16"/>
      <point x="175" y="-16" type="curve" smooth="yes"/>
      <point x="96" y="-16"/>
      <point x="28" y="35"/>
      <point x="28" y="118" type="curve" smooth="yes"/>
      <point x="28" y="162"/>
      <point x="54" y="217"/>
      <point x="120" y="239" type="curve"/>
      <point x="119" y="245" type="line"/>
      <point x="79" y="258"/>
      <point x="51" y="301"/>
      <point x="51" y="343" type="curve" smooth="yes"/>
      <point x="51" y="425"/>
      <point x="151" y="472"/>
      <point x="229" y="472" type="curve" smooth="yes"/>
      <point x="277" y="472"/>
      <point x="326" y="459"/>
      <point x="360" y="427" type="curve"/>
      <point x="317" y="352" type="line"/>
      <point x="306" y="352" type="line"/>
      <point x="282" y="402"/>
      <point x="250" y="436"/>
      <point x="199" y="436" type="curve" smooth="yes"/>
      <point x="164" y="436"/>
      <point x="127" y="411"/>
      <point x="127" y="378" type="curve" smooth="yes"/>
      <point x="127" y="299"/>
      <point x="217" y="286"/>
    </contour>
  </outline>
</glyph>
<glyph name="zeta" format="2">
  <advance width="451"/>
  <unicode hex="03B6"/>
  <outline>
    <contour>
      <point x="371" y="-129" type="curve"/>
      <point x="349" y="-115" type="line"/>
      <point x="364" y="-93"/>
      <point x="377" y="-69"/>
      <point x="377" y="-42" type="curve" smooth="yes"/>
      <point x="377" y="-16"/>
      <point x="354" y="-1"/>
      <point x="312" y="-1" type="curve" smooth="yes"/>
      <point x="276" y="-1"/>
      <point x="215" y="-9"/>
      <point x="188" y="-9" type="curve" smooth="yes"/>
      <point x="168" y="-9"/>
      <point x="105" y="1"/>
      <point x="80" y="24" type="curve" smooth="yes"/>
      <point x="40" y="60"/>
      <point x="24" y="112"/>
      <point x="24" y="162" type="curve" smooth="yes"/>
      <point x="24" y="323"/>
      <point x="163" y="482"/>
      <point x="299" y="580" type="curve"/>
      <point x="297" y="589" type="line"/>
      <point x="247" y="591"/>
      <point x="169" y="600"/>
      <point x="121" y="623" type="curve"/>
      <point x="119" y="634" type="line"/>
      <point x="156" y="674" type="line"/>
      <point x="167" y="674" type="line"/>
      <point x="210" y="643"/>
      <point x="266" y="617"/>
      <point x="367" y="617" type="curve" smooth="yes"/>
      <point x="390" y="617"/>
      <point x="413" y="620"/>
      <point x="433" y="623" type="curve"/>
      <point x="433" y="599" type="line"/>
      <point x="269" y="550"/>
      <point x="139" y="393"/>
      <point x="139" y="214" type="curve" smooth="yes"/>
      <point x="139" y="172"/>
      <point x="146" y="128"/>
      <point x="178" y="97" type="curve" smooth="yes"/>
      <point x="200" y="76"/>
      <point x="251" y="72"/>
      <point x="260" y="72" type="curve" smooth="yes"/>
      <point x="291" y="72"/>
      <point x="340" y="78"/>
      <point x="373" y="78" type="curve" smooth="yes"/>
      <point x="388" y="78"/>
      <point x="456" y="74"/>
      <point x="456" y="26" type="curve" smooth="yes"/>
      <point x="456" y="-18"/>
      <point x="407" y="-82"/>
    </contour>
  </outline>
</glyph>
<glyph name="nu" format="2">
  <advance width="575"/>
  <unicode hex="03BD"/>
  <outline>
    <contour>
      <point x="496" y="471" type="line"/>
      <point x="567" y="445" type="line"/>
      <point x="572" y="432" type="line"/>
      <point x="563" y="413"/>
      <point x="554" y="393"/>
      <point x="544" y="373" type="curve" smooth="yes"/>
      <point x="363" y="20" type="line"/>
      <point x="291" y="-6" type="line"/>
      <point x="281" y="-1" type="line"/>
      <point x="258" y="110"/>
      <point x="235" y="229"/>
      <point x="179" y="330" type="curve" smooth="yes"/>
      <point x="170" y="346"/>
      <point x="132" y="405"/>
      <point x="79" y="405" type="curve" smooth="yes"/>
      <point x="56" y="405"/>
      <point x="33" y="397"/>
      <point x="14" y="387" type="curve"/>
      <point x="-5" y="416" type="line"/>
      <point x="35" y="452"/>
      <point x="92" y="473"/>
      <point x="148" y="473" type="curve" smooth="yes"/>
      <point x="183" y="473"/>
      <point x="220" y="465"/>
      <point x="245" y="441" type="curve" smooth="yes"/>
      <point x="311" y="376"/>
      <point x="337" y="236"/>
      <point x="359" y="131" type="curve"/>
      <point x="368" y="130" type="line"/>
      <point x="422" y="256" type="line"/>
      <point x="445" y="322"/>
      <point x="463" y="389"/>
      <point x="471" y="456" type="curve"/>
    </contour>
  </outline>
</glyph>
<glyph name="xi" format="2">
  <advance width="516"/>
  <unicode hex="03BE"/>
  <outline>
    <contour>
      <point x="432" y="-126" type="curve"/>
      <point x="411" y="-110" type="line"/>
      <point x="426" y="-91"/>
      <point x="445" y="-64"/>
      <point x="445" y="-46" type="curve" smooth="yes"/>
      <point x="445" y="-9"/>
      <point x="408" y="3"/>
      <point x="372" y="3" type="curve" smooth="yes"/>
      <point x="319" y="3"/>
      <point x="240" y="-9"/>
      <point x="202" y="-9" type="curve" smooth="yes"/>
      <point x="69" y="-9"/>
      <point x="16" y="61"/>
      <point x="16" y="145" type="curve" smooth="yes"/>
      <point x="16" y="228"/>
      <point x="112" y="302"/>
      <point x="193" y="331" type="curve"/>
      <point x="193" y="342" type="line"/>
      <point x="162" y="348"/>
      <point x="79" y="370"/>
      <point x="79" y="449" type="curve" smooth="yes"/>
      <point x="79" y="524"/>
      <point x="164" y="570"/>
      <point x="233" y="596" type="curve"/>
      <point x="231" y="606" type="line"/>
      <point x="185" y="608"/>
      <point x="100" y="610"/>
      <point x="78" y="640" type="curve"/>
      <point x="122" y="689" type="line"/>
      <point x="130" y="688" type="line"/>
      <point x="170" y="650"/>
      <point x="232" y="635"/>
      <point x="292" y="635" type="curve" smooth="yes"/>
      <point x="332" y="635"/>
      <point x="360" y="637"/>
      <point x="395" y="641" type="curve"/>
      <point x="398" y="612" type="line"/>
      <point x="325" y="603"/>
      <point x="194" y="572"/>
      <point x="194" y="478" type="curve" smooth="yes"/>
      <point x="194" y="374"/>
      <point x="287" y="369"/>
      <point x="369" y="367" type="curve"/>
      <point x="369" y="341" type="line"/>
      <point x="304" y="336"/>
      <point x="237" y="323"/>
      <point x="190" y="280" type="curve" smooth="yes"/>
      <point x="161" y="254"/>
      <point x="136" y="221"/>
      <point x="136" y="183" type="curve" smooth="yes"/>
      <point x="136" y="154"/>
      <point x="138" y="123"/>
      <point x="161" y="103" type="curve" smooth="yes"/>
      <point x="187" y="80"/>
      <point x="225" y="77"/>
      <point x="261" y="77" type="curve" smooth="yes"/>
      <point x="309" y="77"/>
      <point x="382" y="88"/>
      <point x="418" y="88" type="curve" smooth="yes"/>
      <point x="488" y="88"/>
      <point x="519" y="71"/>
      <point x="519" y="29" type="curve" smooth="yes"/>
      <point x="519" y="-32"/>
      <point x="474" y="-82"/>
    </contour>
  </outline>
</glyph>
<glyph name="pi" format="2">
  <advance width="667"/>
  <unicode hex="03C0"/>
  <outline>
    <contour>
      <point x="162" y="485" type="curve" smooth="yes"/>
      <point x="534" y="485" type="line" smooth="yes"/>
      <point x="580" y="485"/>
      <point x="633" y="493"/>
      <point x="660" y="523" type="curve"/>
      <point x="676" y="511" type="line"/>
      <point x="652" y="461"/>
      <point x="617" y="388"/>
      <point x="587" y="388" type="curve" smooth="yes"/>
      <point x="509" y="388" type="line"/>
      <point x="504" y="344"/>
      <point x="500" y="294"/>
      <point x="500" y="258" type="curve" smooth="yes"/>
      <point x="500" y="174"/>
      <point x="502" y="81"/>
      <point x="573" y="81" type="curve" smooth="yes"/>
      <point x="589" y="81"/>
      <point x="611" y="94"/>
      <point x="625" y="107" type="curve"/>
      <point x="635" y="105" type="line"/>
      <point x="645" y="85" type="line"/>
      <point x="606" y="48"/>
      <point x="557" y="1"/>
      <point x="498" y="1" type="curve" smooth="yes"/>
      <point x="390" y="1"/>
      <point x="395" y="96"/>
      <point x="395" y="183" type="curve" smooth="yes"/>
      <point x="395" y="248"/>
      <point x="401" y="315"/>
      <point x="409" y="380" type="curve"/>
      <point x="402" y="388" type="line"/>
      <point x="274" y="388" type="line"/>
      <point x="249" y="254"/>
      <point x="212" y="131"/>
      <point x="158" y="4" type="curve"/>
      <point x="145" y="-4" type="line"/>
      <point x="67" y="8" type="line"/>
      <point x="66" y="21" type="line"/>
      <point x="80" y="40"/>
      <point x="136" y="125"/>
      <point x="171" y="200" type="curve" smooth="yes"/>
      <point x="191" y="243"/>
      <point x="212" y="333"/>
      <point x="220" y="388" type="curve"/>
      <point x="126" y="388" type="line" smooth="yes"/>
      <point x="83" y="388"/>
      <point x="53" y="325"/>
      <point x="37" y="279" type="curve"/>
      <point x="9" y="291" type="line"/>
      <point x="22" y="355"/>
      <point x="46" y="450"/>
      <point x="70" y="468" type="curve" smooth="yes"/>
      <point x="92" y="485"/>
      <point x="130" y="485"/>
    </contour>
  </outline>
</glyph>
<glyph name="sigma" format="2">
  <advance width="625"/>
  <unicode hex="03C3"/>
  <outline>
    <contour>
      <point x="271" y="425" type="curve" smooth="yes"/>
      <point x="229" y="425"/>
      <point x="158" y="406"/>
      <point x="158" y="228" type="curve" smooth="yes"/>
      <point x="158" y="154"/>
      <point x="169" y="32"/>
      <point x="267" y="32" type="curve" smooth="yes"/>
      <point x="367" y="32"/>
      <point x="386" y="154"/>
      <point x="386" y="233" type="curve" smooth="yes"/>
      <point x="386" y="303"/>
      <point x="377" y="425"/>
    </contour>
    <contour>
      <point x="619" y="475" type="curve"/>
      <point x="627" y="471" type="line"/>
      <point x="605" y="393" type="line"/>
      <point x="595" y="386" type="line"/>
      <point x="398" y="421" type="line"/>
      <point x="392" y="414" type="line"/>
      <point x="468" y="370"/>
      <point x="493" y="305"/>
      <point x="493" y="231" type="curve" smooth="yes"/>
      <point x="493" y="166"/>
      <point x="478" y="99"/>
      <point x="427" y="53" type="curve" smooth="yes"/>
      <point x="384" y="14"/>
      <point x="325" y="-11"/>
      <point x="265" y="-11" type="curve" smooth="yes"/>
      <point x="205" y="-11"/>
      <point x="142" y="-2"/>
      <point x="98" y="38" type="curve" smooth="yes"/>
      <point x="45" y="86"/>
      <point x="32" y="157"/>
      <point x="32" y="224" type="curve" smooth="yes"/>
      <point x="32" y="289"/>
      <point x="40" y="360"/>
      <point x="92" y="408" type="curve" smooth="yes"/>
      <point x="140" y="452"/>
      <point x="204" y="464"/>
      <point x="271" y="464" type="curve" smooth="yes"/>
      <point x="384" y="464"/>
      <point x="506" y="472"/>
    </contour>
  </outline>
</glyph>
<glyph name="tau" format="2">
  <advance width="555"/>
  <unicode hex="03C4"/>
  <outline>
    <contour>
      <point x="476" y="372" type="curve" smooth="yes"/>
      <point x="354" y="372" type="line"/>
      <point x="343" y="361" type="line"/>
      <point x="337" y="320"/>
      <point x="330" y="261"/>
      <point x="330" y="223" type="curve" smooth="yes"/>
      <point x="330" y="167"/>
      <point x="337" y="69"/>
      <point x="406" y="69" type="curve" smooth="yes"/>
      <point x="420" y="69"/>
      <point x="441" y="80"/>
      <point x="459" y="93" type="curve"/>
      <point x="469" y="92" type="line"/>
      <point x="479" y="77" type="line"/>
      <point x="439" y="37"/>
      <point x="383" y="-7"/>
      <point x="327" y="-7" type="curve" smooth="yes"/>
      <point x="227" y="-7"/>
      <point x="220" y="74"/>
      <point x="220" y="127" type="curve" smooth="yes"/>
      <point x="220" y="220"/>
      <point x="232" y="286"/>
      <point x="240" y="361" type="curve"/>
      <point x="231" y="371" type="line"/>
      <point x="157" y="371" type="line" smooth="yes"/>
      <point x="135" y="371"/>
      <point x="96" y="368"/>
      <point x="79" y="353" type="curve" smooth="yes"/>
      <point x="56" y="332"/>
      <point x="44" y="298"/>
      <point x="34" y="268" type="curve"/>
      <point x="8" y="276" type="line"/>
      <point x="16" y="315"/>
      <point x="28" y="370"/>
      <point x="33" y="391" type="curve" smooth="yes"/>
      <point x="46" y="445"/>
      <point x="91" y="460"/>
      <point x="138" y="460" type="curve" smooth="yes"/>
      <point x="433" y="460" type="line" smooth="yes"/>
      <point x="475" y="460"/>
      <point x="517" y="472"/>
      <point x="549" y="497" type="curve"/>
      <point x="561" y="488" type="line"/>
      <point x="552" y="450"/>
      <point x="504" y="372"/>
    </contour>
  </outline>
</glyph>
<glyph name="upsilon" format="2">
  <advance width="590"/>
  <unicode hex="03C5"/>
  <outline>
    <contour>
      <point x="400" y="399" type="curve"/>
      <point x="397" y="411" type="line"/>
      <point x="480" y="472" type="line"/>
      <point x="496" y="466" type="line"/>
      <point x="547" y="422"/>
      <point x="561" y="357"/>
      <point x="561" y="295" type="curve" smooth="yes"/>
      <point x="561" y="152"/>
      <point x="442" y="-2"/>
      <point x="279" y="-2" type="curve" smooth="yes"/>
      <point x="179" y="-2"/>
      <point x="116" y="66"/>
      <point x="116" y="145" type="curve"/>
      <point x="117" y="149"/>
      <point x="114" y="252"/>
      <point x="114" y="305" type="curve" smooth="yes"/>
      <point x="114" y="347"/>
      <point x="105" y="392"/>
      <point x="71" y="392" type="curve" smooth="yes"/>
      <point x="51" y="392"/>
      <point x="29" y="381"/>
      <point x="9" y="371" type="curve"/>
      <point x="-6" y="390" type="line"/>
      <point x="43" y="423"/>
      <point x="112" y="471"/>
      <point x="150" y="471" type="curve" smooth="yes"/>
      <point x="217" y="471"/>
      <point x="218" y="396"/>
      <point x="218" y="371" type="curve" smooth="yes"/>
      <point x="218" y="240" type="line" smooth="yes"/>
      <point x="218" y="141"/>
      <point x="255" y="65"/>
      <point x="347" y="65" type="curve" smooth="yes"/>
      <point x="444" y="65"/>
      <point x="476" y="151"/>
      <point x="476" y="230" type="curve" smooth="yes"/>
      <point x="476" y="293"/>
      <point x="446" y="352"/>
    </contour>
  </outline>
</glyph>
<glyph name="theta1" format="2">
  <advance width="602"/>
  <unicode hex="03D1"/>
  <outline>
    <contour>
      <point x="5" y="273" type="curve"/>
      <point x="-8" y="293" type="line"/>
      <point x="41" y="327"/>
      <point x="104" y="370"/>
      <point x="145" y="370" type="curve" smooth="yes"/>
      <point x="208" y="370"/>
      <point x="205" y="307"/>
      <point x="205" y="237" type="curve" smooth="yes"/>
      <point x="205" y="149"/>
      <point x="227" y="66"/>
      <point x="319" y="66" type="curve" smooth="yes"/>
      <point x="368" y="66"/>
      <point x="441" y="98"/>
      <point x="452" y="307" type="curve"/>
      <point x="444" y="315" type="line"/>
      <point x="339" y="335" type="line"/>
      <point x="239" y="364"/>
      <point x="167" y="429"/>
      <point x="167" y="521" type="curve" smooth="yes"/>
      <point x="167" y="607"/>
      <point x="232" y="676"/>
      <point x="331" y="676" type="curve" smooth="yes"/>
      <point x="375" y="676"/>
      <point x="418" y="661"/>
      <point x="449" y="633" type="curve" smooth="yes"/>
      <point x="536" y="554"/>
      <point x="540" y="449"/>
      <point x="540" y="351" type="curve"/>
      <point x="546" y="342" type="line"/>
      <point x="563" y="342"/>
      <point x="592" y="341"/>
      <point x="604" y="341" type="curve"/>
      <point x="604" y="306" type="line"/>
      <point x="575" y="306"/>
      <point x="558" y="306"/>
      <point x="543" y="307" type="curve"/>
      <point x="534" y="300" type="line"/>
      <point x="514" y="137"/>
      <point x="398" y="-8"/>
      <point x="255" y="-8" type="curve" smooth="yes"/>
      <point x="115" y="-8"/>
      <point x="99" y="113"/>
      <point x="99" y="204" type="curve" smooth="yes"/>
      <point x="99" y="278"/>
      <point x="81" y="291"/>
      <point x="53" y="291" type="curve" smooth="yes"/>
      <point x="38" y="291"/>
      <point x="20" y="282"/>
    </contour>
    <contour>
      <point x="453" y="359" type="line"/>
      <point x="453" y="377" type="line" smooth="yes"/>
      <point x="453" y="464"/>
      <point x="422" y="633"/>
      <point x="305" y="633" type="curve" smooth="yes"/>
      <point x="269" y="633"/>
      <point x="235" y="611"/>
      <point x="235" y="565" type="curve" smooth="yes"/>
      <point x="235" y="458"/>
      <point x="315" y="377"/>
      <point x="446" y="353" type="curve"/>
    </contour>
  </outline>
</glyph>
<glyph name="quoteleft" format="2">
  <advance width="215"/>
  <unicode hex="2018"/>
  <outline>
    <contour>
      <point x="153" y="709" type="curve"/>
      <point x="168" y="695" type="line"/>
      <point x="144" y="659"/>
      <point x="111" y="611"/>
      <point x="111" y="577" type="curve" smooth="yes"/>
      <point x="111" y="561"/>
      <point x="117" y="545"/>
      <point x="127" y="532" type="curve" smooth="yes"/>
      <point x="165" y="483" type="line" smooth="yes"/>
      <point x="171" y="475"/>
      <point x="175" y="465"/>
      <point x="175" y="455" type="curve" smooth="yes"/>
      <point x="175" y="434"/>
      <point x="146" y="410"/>
      <point x="125" y="410" type="curve" smooth="yes"/>
      <point x="86" y="410"/>
      <point x="40" y="496"/>
      <point x="40" y="541" type="curve" smooth="yes"/>
      <point x="40" y="591"/>
      <point x="106" y="660"/>
    </contour>
  </outline>
</glyph>
<glyph name="quoteright" format="2">
  <advance width="215"/>
  <unicode hex="2019"/>
  <outline>
    <contour>
      <point x="62" y="394" type="curve"/>
      <point x="47" y="408" type="line"/>
      <point x="70" y="444"/>
      <point x="104" y="492"/>
      <point x="104" y="526" type="curve" smooth="yes"/>
      <point x="104" y="541"/>
      <point x="98" y="558"/>
      <point x="88" y="571" type="curve" smooth="yes"/>
      <point x="50" y="620" type="line" smooth="yes"/>
      <point x="44" y="628"/>
      <point x="40" y="638"/>
      <point x="40" y="648" type="curve" smooth="yes"/>
      <point x="40" y="669"/>
      <point x="69" y="693"/>
      <point x="90" y="693" type="curve" smooth="yes"/>
      <point x="129" y="693"/>
      <point x="175" y="606"/>
      <point x="175" y="562" type="curve" smooth="yes"/>
      <point x="175" y="511"/>
      <point x="109" y="443"/>
    </contour>
  </outline>
</glyph>
<glyph name="uni2022" format="2">
  <advance width="348.0"/>
  <unicode hex="2022"/>
  <outline>
    <contour>
      <point x="68" y="262" type="curve" smooth="yes"/>
      <point x="68" y="320"/>
      <point x="116" y="368"/>
      <point x="174" y="368" type="curve" smooth="yes"/>
      <point x="232" y="368"/>
      <point x="280" y="320"/>
      <point x="280" y="262" type="curve" smooth="yes"/>
      <point x="280" y="204"/>
      <point x="232" y="157"/>
      <point x="174" y="157" type="curve" smooth="yes"/>
      <point x="116" y="157"/>
      <point x="68" y="204"/>
    </contour>
  </outline>
</glyph>
<glyph name="uni2039" format="2">
  <advance width="266.0"/>
  <unicode hex="2039"/>
  <outline>
    <contour>
      <point x="18" y="221" type="line"/>
      <point x="208" y="441" type="line"/>
      <point x="239" y="387" type="line"/>
      <point x="92" y="218" type="line"/>
      <point x="248" y="17" type="line"/>
      <point x="234" y="-15" type="line"/>
    </contour>
  </outline>
</glyph>
<glyph name="uni203A" format="2">
  <advance width="276.0"/>
  <unicode hex="203A"/>
  <outline>
    <contour>
      <point x="258" y="221" type="line"/>
      <point x="69" y="441" type="line"/>
      <point x="38" y="387" type="line"/>
      <point x="184" y="218" type="line"/>
      <point x="28" y="17" type="line"/>
      <point x="42" y="-15" type="line"/>
    </contour>
  </outline>
</glyph>
<glyph name="fraction" format="2">
  <advance width="80"/>
  <unicode hex="2044"/>
  <unicode hex="2215"/>
  <outline>
    <contour>
      <point x="272" y="672" type="line"/>
      <point x="274" y="660" type="line"/>
      <point x="-150" y="-6" type="line"/>
      <point x="-194" y="13" type="line"/>
      <point x="-194" y="27" type="line"/>
      <point x="226" y="686" type="line"/>
      <point x="238" y="687" type="line"/>
    </contour>
  </outline>
</glyph>
<glyph name="uni20AC" format="2">
  <advance width="606.0"/>
  <unicode hex="20AC"/>
  <outline>
    <contour>
      <point x="567.0" y="585" type="curve"/>
      <point x="473.0" y="499" type="line"/>
      <point x="457.0" y="502" type="line"/>
      <point x="448.498013027027" y="571.1813425945945"/>
      <point x="413.2589288853112" y="638.1294440103147"/>
      <point x="353.0074457607984" y="637.9143468234245" type="curve" smooth="yes"/>
      <point x="259.33515568540014" y="637.5799376928948"/>
      <point x="198.99999999999994" y="499.74133010526305"/>
      <point x="199.0" y="360" type="curve" smooth="yes"/>
      <point x="199.0" y="158.25000000000003"/>
      <point x="328.0" y="-1.0"/>
      <point x="538.0" y="106" type="curve"/>
      <point x="559.0" y="81" type="line"/>
      <point x="465.07599999999996" y="16.505520000000004"/>
      <point x="380.2677750352" y="-7.16150637715619"/>
      <point x="308.07373608059277" y="-1.7108327573311897" type="curve" smooth="yes"/>
      <point x="149.67483088479995" y="10.248336537833621"/>
      <point x="51.99999999999996" y="162.37868905109494"/>
      <point x="52.0" y="331" type="curve" smooth="yes"/>
      <point x="52.0" y="430"/>
      <point x="78.0" y="531"/>
      <point x="157.0" y="603" type="curve" smooth="yes"/>
      <point x="227.15879724770642" y="666.7807247706422"/>
      <point x="297.1357096261615" y="693.0833348609468"/>
      <point x="360.5167451078947" y="693.8909568141387" type="curve" smooth="yes"/>
      <point x="447.1073992805394" y="694.9943233451451"/>
      <point x="521.38698" y="648.5118000000001"/>
    </contour>
    <contour>
      <point x="343.0" y="270" type="line"/>
      <point x="-33.0" y="270" type="line"/>
      <point x="-14.0" y="320" type="line"/>
      <point x="359.0" y="320" type="line"/>
    </contour>
    <contour>
      <point x="374.0" y="370" type="line"/>
      <point x="-2.0" y="370" type="line"/>
      <point x="17.0" y="420" type="line"/>
      <point x="390.0" y="420" type="line"/>
    </contour>
  </outline>
</glyph>
<glyph name="weierstrass" format="2">
  <advance width="667"/>
  <unicode hex="2118"/>
  <outline>
    <contour>
      <point x="323" y="59" type="curve"/>
      <point x="364" y="105" type="line"/>
      <point x="374" y="105" type="line"/>
      <point x="382" y="80"/>
      <point x="401" y="56"/>
      <point x="433" y="56" type="curve" smooth="yes"/>
      <point x="523" y="56"/>
      <point x="537" y="182"/>
      <point x="537" y="257" type="curve" smooth="yes"/>
      <point x="537" y="322"/>
      <point x="508" y="412"/>
      <point x="425" y="412" type="curve" smooth="yes"/>
      <point x="341" y="412"/>
      <point x="269" y="330"/>
      <point x="220" y="257" type="curve"/>
      <point x="257" y="193"/>
      <point x="305" y="130"/>
    </contour>
    <contour>
      <point x="218" y="489" type="curve"/>
      <point x="234" y="475" type="line"/>
      <point x="206" y="445"/>
      <point x="175" y="406"/>
      <point x="175" y="364" type="curve" smooth="yes"/>
      <point x="175" y="342"/>
      <point x="189" y="314"/>
      <point x="197" y="299" type="curve"/>
      <point x="208" y="299" type="line"/>
      <point x="268" y="377"/>
      <point x="367" y="486"/>
      <point x="488" y="486" type="curve" smooth="yes"/>
      <point x="595" y="486"/>
      <point x="627" y="395"/>
      <point x="627" y="318" type="curve" smooth="yes"/>
      <point x="627" y="216"/>
      <point x="580" y="121"/>
      <point x="502" y="49" type="curve" smooth="yes"/>
      <point x="470" y="20"/>
      <point x="428" y="-9"/>
      <point x="383" y="-9" type="curve" smooth="yes"/>
      <point x="364" y="-9"/>
      <point x="345" y="-5"/>
      <point x="329" y="3" type="curve"/>
      <point x="325" y="-83"/>
      <point x="278" y="-202"/>
      <point x="164" y="-202" type="curve" smooth="yes"/>
      <point x="89" y="-202"/>
      <point x="43" y="-138"/>
      <point x="43" y="-76" type="curve" smooth="yes"/>
      <point x="43" y="19"/>
      <point x="89" y="112"/>
      <point x="138" y="194" type="curve"/>
      <point x="119" y="222"/>
      <point x="94" y="263"/>
      <point x="94" y="301" type="curve" smooth="yes"/>
      <point x="94" y="371"/>
      <point x="158" y="441"/>
    </contour>
    <contour>
      <point x="156" y="153" type="line"/>
      <point x="128" y="104"/>
      <point x="101" y="43"/>
      <point x="101" y="-15" type="curve" smooth="yes"/>
      <point x="101" y="-70"/>
      <point x="128" y="-152"/>
      <point x="197" y="-152" type="curve" smooth="yes"/>
      <point x="257" y="-152"/>
      <point x="275" y="-84"/>
      <point x="275" y="-39" type="curve" smooth="yes"/>
      <point x="275" y="13"/>
      <point x="219" y="81"/>
      <point x="180" y="134" type="curve" smooth="yes"/>
      <point x="166" y="153" type="line"/>
    </contour>
  </outline>
</glyph>
<glyph name="partialdiff" format="2">
  <advance width="635"/>
  <unicode hex="2202"/>
  <outline>
    <contour>
      <point x="109" y="534" type="curve"/>
      <point x="86" y="545" type="line"/>
      <point x="100" y="582"/>
      <point x="115" y="620"/>
      <point x="145" y="648" type="curve" smooth="yes"/>
      <point x="181" y="681"/>
      <point x="232" y="696"/>
      <point x="283" y="696" type="curve" smooth="yes"/>
      <point x="338" y="696"/>
      <point x="389" y="667"/>
      <point x="427" y="632" type="curve" smooth="yes"/>
      <point x="524" y="543"/>
      <point x="553" y="402"/>
      <point x="553" y="279" type="curve" smooth="yes"/>
      <point x="553" y="145"/>
      <point x="490" y="-18"/>
      <point x="307" y="-18" type="curve" smooth="yes"/>
      <point x="244" y="-18"/>
      <point x="188" y="3"/>
      <point x="144" y="43" type="curve" smooth="yes"/>
      <point x="96" y="86"/>
      <point x="82" y="164"/>
      <point x="82" y="225" type="curve" smooth="yes"/>
      <point x="82" y="291"/>
      <point x="99" y="360"/>
      <point x="152" y="408" type="curve" smooth="yes"/>
      <point x="203" y="455"/>
      <point x="272" y="477"/>
      <point x="344" y="477" type="curve" smooth="yes"/>
      <point x="351" y="477"/>
      <point x="367" y="476"/>
      <point x="383" y="474" type="curve"/>
      <point x="389" y="484" type="line"/>
      <point x="360" y="551"/>
      <point x="309" y="625"/>
      <point x="223" y="625" type="curve" smooth="yes"/>
      <point x="170" y="625"/>
      <point x="138" y="598"/>
    </contour>
    <contour>
      <point x="406" y="430" type="curve"/>
      <point x="390" y="436"/>
      <point x="372" y="441"/>
      <point x="355" y="441" type="curve" smooth="yes"/>
      <point x="234" y="441"/>
      <point x="200" y="342"/>
      <point x="200" y="240" type="curve" smooth="yes"/>
      <point x="200" y="165"/>
      <point x="219" y="21"/>
      <point x="324" y="21" type="curve" smooth="yes"/>
      <point x="430" y="21"/>
      <point x="439" y="166"/>
      <point x="439" y="261" type="curve" smooth="yes"/>
      <point x="439" y="319"/>
      <point x="427" y="376"/>
    </contour>
  </outline>
</glyph>
<glyph name="Delta" format="2">
  <advance width="831"/>
  <unicode hex="2206"/>
  <outline>
    <contour>
      <point x="413" y="669" type="curve"/>
      <point x="538" y="699" type="line"/>
      <point x="596" y="478"/>
      <point x="669" y="264"/>
      <point x="778" y="55" type="curve"/>
      <point x="779" y="44" type="line"/>
      <point x="656" y="-7" type="line"/>
      <point x="588" y="-1"/>
      <point x="285" y="6"/>
      <point x="285" y="6" type="curve"/>
      <point x="179" y="6"/>
      <point x="74" y="0"/>
      <point x="54" y="-1" type="curve"/>
      <point x="54" y="0"/>
      <point x="52" y="20"/>
      <point x="51" y="34" type="curve"/>
      <point x="178" y="243"/>
      <point x="323" y="483"/>
    </contour>
    <contour>
      <point x="148" y="67" type="curve"/>
      <point x="592" y="55" type="line"/>
      <point x="604" y="64"/>
      <point x="612" y="69"/>
      <point x="612" y="69" type="curve"/>
      <point x="544" y="230"/>
      <point x="485" y="404"/>
      <point x="431" y="568" type="curve"/>
      <point x="427" y="566"/>
      <point x="418" y="564"/>
      <point x="417" y="564" type="curve"/>
      <point x="334" y="400"/>
      <point x="238" y="225"/>
    </contour>
  </outline>
</glyph>
<glyph name="eight.dnom" format="2">
  <advance width="400"/>
  <outline>
    <contour>
      <point x="182" y="198" type="curve"/>
      <point x="136" y="179"/>
      <point x="116" y="157"/>
      <point x="116" y="118" type="curve" smooth="yes"/>
      <point x="116" y="75"/>
      <point x="151" y="22"/>
      <point x="203" y="22" type="curve" smooth="yes"/>
      <point x="256" y="22"/>
      <point x="282" y="53"/>
      <point x="282" y="94" type="curve" smooth="yes"/>
      <point x="282" y="141"/>
      <point x="226" y="174"/>
    </contour>
    <contour>
      <point x="252" y="236" type="line"/>
      <point x="313" y="199"/>
      <point x="349" y="175"/>
      <point x="349" y="124" type="curve" smooth="yes"/>
      <point x="349" y="45"/>
      <point x="262" y="-3"/>
      <point x="174" y="-3" type="curve" smooth="yes"/>
      <point x="104" y="-3"/>
      <point x="47" y="36"/>
      <point x="47" y="97" type="curve" smooth="yes"/>
      <point x="47" y="153"/>
      <point x="86" y="180"/>
      <point x="158" y="212" type="curve"/>
      <point x="158" y="216" type="line"/>
      <point x="120" y="244"/>
      <point x="73" y="275"/>
      <point x="73" y="320" type="curve" smooth="yes"/>
      <point x="73" y="378"/>
      <point x="147" y="411"/>
      <point x="209" y="432" type="curve"/>
      <point x="285" y="423"/>
      <point x="335" y="398"/>
      <point x="335" y="352" type="curve" smooth="yes"/>
      <point x="335" y="306"/>
      <point x="293" y="270"/>
      <point x="252" y="242" type="curve"/>
    </contour>
    <contour>
      <point x="225" y="253" type="curve"/>
      <point x="253" y="270"/>
      <point x="268" y="301"/>
      <point x="268" y="330" type="curve" smooth="yes"/>
      <point x="268" y="372"/>
      <point x="228" y="396"/>
      <point x="184" y="400" type="curve"/>
      <point x="156" y="390"/>
      <point x="142" y="366"/>
      <point x="142" y="342" type="curve" smooth="yes"/>
      <point x="142" y="313"/>
      <point x="189" y="276"/>
    </contour>
  </outline>
</glyph>
<glyph name="epsilon1" format="2">
  <advance width="479"/>
  <outline>
    <contour>
      <point x="384" y="263" type="curve"/>
      <point x="368" y="219" type="line"/>
      <point x="334" y="219" type="line" smooth="yes"/>
      <point x="261" y="219"/>
      <point x="187" y="218"/>
      <point x="150" y="216" type="curve"/>
      <point x="144" y="207" type="line"/>
      <point x="155" y="124"/>
      <point x="212" y="55"/>
      <point x="319" y="55" type="curve" smooth="yes"/>
      <point x="370" y="55"/>
      <point x="420" y="72"/>
      <point x="459" y="100" type="curve"/>
      <point x="468" y="99" type="line"/>
      <point x="480" y="80" type="line"/>
      <point x="413" y="24"/>
      <point x="324" y="-7"/>
      <point x="233" y="-7" type="curve" smooth="yes"/>
      <point x="181" y="-7"/>
      <point x="126" y="1"/>
      <point x="88" y="36" type="curve" smooth="yes"/>
      <point x="39" y="80"/>
      <point x="25" y="145"/>
      <point x="25" y="206" type="curve" smooth="yes"/>
      <point x="25" y="347"/>
      <point x="130" y="471"/>
      <point x="291" y="471" type="curve" smooth="yes"/>
      <point x="356" y="471"/>
      <point x="418" y="446"/>
      <point x="462" y="403" type="curve"/>
      <point x="408" y="339" type="line"/>
      <point x="394" y="342" type="line"/>
      <point x="367" y="391"/>
      <point x="335" y="429"/>
      <point x="275" y="429" type="curve" smooth="yes"/>
      <point x="183" y="429"/>
      <point x="139" y="345"/>
      <point x="138" y="273" type="curve"/>
      <point x="145" y="264" type="line"/>
      <point x="181" y="262"/>
      <point x="219" y="262"/>
      <point x="254" y="262" type="curve" smooth="yes"/>
      <point x="297" y="262"/>
      <point x="341" y="262"/>
    </contour>
  </outline>
</glyph>
<glyph name="five.dnom" format="2">
  <advance width="400"/>
  <outline>
    <contour>
      <point x="330" y="416" type="line"/>
      <point x="333" y="414" type="line"/>
      <point x="308" y="355" type="line"/>
      <point x="109" y="355" type="line"/>
      <point x="109" y="250" type="line"/>
      <point x="116" y="248" type="line"/>
      <point x="145" y="261"/>
      <point x="176" y="268"/>
      <point x="206" y="268" type="curve" smooth="yes"/>
      <point x="287" y="268"/>
      <point x="343" y="223"/>
      <point x="343" y="153" type="curve" smooth="yes"/>
      <point x="343" y="62"/>
      <point x="260" y="-7"/>
      <point x="156" y="-7" type="curve" smooth="yes"/>
      <point x="113" y="-7"/>
      <point x="83" y="-4"/>
      <point x="31" y="29" type="curve"/>
      <point x="31" y="37" type="line"/>
      <point x="63" y="94" type="line"/>
      <point x="75" y="94" type="line"/>
      <point x="88" y="56"/>
      <point x="113" y="18"/>
      <point x="164" y="18" type="curve" smooth="yes"/>
      <point x="239" y="18"/>
      <point x="260" y="84"/>
      <point x="260" y="138" type="curve" smooth="yes"/>
      <point x="260" y="183"/>
      <point x="240" y="238"/>
      <point x="166" y="238" type="curve" smooth="yes"/>
      <point x="143" y="238"/>
      <point x="105" y="224"/>
      <point x="86" y="205" type="curve"/>
      <point x="73" y="209" type="line"/>
      <point x="73" y="416" type="line"/>
    </contour>
  </outline>
</glyph>
<glyph name="four.dnom" format="2">
  <advance width="400"/>
  <outline>
    <contour>
      <point x="289" y="153" type="line"/>
      <point x="356" y="153" type="line"/>
      <point x="358" y="148" type="line"/>
      <point x="340" y="110" type="line"/>
      <point x="289" y="110" type="line"/>
      <point x="285" y="106" type="line"/>
      <point x="285" y="77"/>
      <point x="286" y="48"/>
      <point x="289" y="19" type="curve"/>
      <point x="218" y="-7" type="line"/>
      <point x="209" y="-1" type="line"/>
      <point x="213" y="34"/>
      <point x="216" y="71"/>
      <point x="216" y="107" type="curve"/>
      <point x="211" y="110" type="line"/>
      <point x="20" y="110" type="line"/>
      <point x="20" y="142" type="line"/>
      <point x="216" y="407" type="line"/>
      <point x="285" y="425" type="line"/>
      <point x="285" y="419" type="line"/>
      <point x="285" y="158" type="line"/>
    </contour>
    <contour>
      <point x="216" y="156" type="line"/>
      <point x="216" y="343" type="line"/>
      <point x="212" y="349" type="line"/>
      <point x="209" y="349"/>
      <point x="181" y="318"/>
      <point x="148" y="273" type="curve" smooth="yes"/>
      <point x="82" y="184"/>
      <point x="74" y="159"/>
      <point x="73" y="157" type="curve" smooth="yes"/>
      <point x="77" y="153" type="line"/>
      <point x="211" y="153" type="line"/>
    </contour>
  </outline>
</glyph>
<glyph name="nine.dnom" format="2">
  <advance width="400"/>
  <outline>
    <contour>
      <point x="265" y="205" type="line"/>
      <point x="260" y="209" type="line"/>
      <point x="213" y="187"/>
      <point x="173" y="182"/>
      <point x="160" y="182" type="curve" smooth="yes"/>
      <point x="101" y="182"/>
      <point x="50" y="229"/>
      <point x="50" y="279" type="curve" smooth="yes"/>
      <point x="50" y="347"/>
      <point x="115" y="390"/>
      <point x="184" y="424" type="curve"/>
      <point x="212" y="424"/>
      <point x="239" y="424"/>
      <point x="266" y="419" type="curve" smooth="yes"/>
      <point x="318" y="409"/>
      <point x="355" y="374"/>
      <point x="355" y="331" type="curve" smooth="yes"/>
      <point x="355" y="309"/>
      <point x="347" y="288"/>
      <point x="337" y="268" type="curve" smooth="yes"/>
      <point x="296" y="183"/>
      <point x="209" y="102"/>
      <point x="173" y="10" type="curve"/>
      <point x="103" y="-6" type="line"/>
      <point x="93" y="1" type="line"/>
      <point x="106" y="21"/>
      <point x="120" y="39"/>
      <point x="136" y="58" type="curve" smooth="yes"/>
    </contour>
    <contour>
      <point x="268" y="236" type="curve"/>
      <point x="274" y="250"/>
      <point x="281" y="267"/>
      <point x="281" y="282" type="curve" smooth="yes"/>
      <point x="281" y="313"/>
      <point x="268" y="343"/>
      <point x="242" y="365" type="curve" smooth="yes"/>
      <point x="223" y="381"/>
      <point x="181" y="388"/>
      <point x="160" y="388" type="curve"/>
      <point x="135" y="370"/>
      <point x="121" y="341"/>
      <point x="121" y="314" type="curve" smooth="yes"/>
      <point x="121" y="268"/>
      <point x="153" y="222"/>
      <point x="217" y="222" type="curve" smooth="yes"/>
      <point x="236" y="222"/>
      <point x="252" y="228"/>
    </contour>
  </outline>
</glyph>
<glyph name="one.dnom" format="2">
  <advance width="400"/>
  <outline>
    <contour>
      <point x="65" y="376" type="line"/>
      <point x="242" y="429" type="line"/>
      <point x="253" y="418" type="line"/>
      <point x="246" y="336"/>
      <point x="243" y="253"/>
      <point x="243" y="170" type="curve" smooth="yes"/>
      <point x="243" y="120"/>
      <point x="243" y="57"/>
      <point x="245" y="19" type="curve"/>
      <point x="175" y="-5" type="line"/>
      <point x="161" y="3" type="line"/>
      <point x="169" y="74"/>
      <point x="174" y="146"/>
      <point x="174" y="217" type="curve" smooth="yes"/>
      <point x="174" y="257"/>
      <point x="173" y="297"/>
      <point x="170" y="337" type="curve" smooth="yes"/>
      <point x="169" y="348"/>
      <point x="160" y="356"/>
      <point x="149" y="356" type="curve" smooth="yes"/>
      <point x="65" y="356" type="line"/>
    </contour>
  </outline>
</glyph>
<glyph name="seven.dnom" format="2">
  <advance width="400"/>
  <outline>
    <contour>
      <point x="184" y="12" type="curve"/>
      <point x="106" y="-9" type="line"/>
      <point x="94" y="2" type="line"/>
      <point x="126" y="128"/>
      <point x="209" y="227"/>
      <point x="310" y="349" type="curve" smooth="yes"/>
      <point x="311" y="351"/>
      <point x="311" y="353"/>
      <point x="311" y="355" type="curve" smooth="yes"/>
      <point x="309" y="357"/>
      <point x="305" y="358"/>
      <point x="302" y="358" type="curve" smooth="yes"/>
      <point x="240" y="357"/>
      <point x="178" y="357"/>
      <point x="116" y="357" type="curve" smooth="yes"/>
      <point x="89" y="356"/>
      <point x="87" y="346"/>
      <point x="76" y="288" type="curve"/>
      <point x="52" y="288" type="line"/>
      <point x="52" y="418" type="line"/>
      <point x="149" y="416"/>
      <point x="268" y="416"/>
      <point x="377" y="416" type="curve"/>
      <point x="377" y="406" type="line"/>
      <point x="324" y="336"/>
      <point x="275" y="265"/>
      <point x="234" y="191" type="curve" smooth="yes"/>
      <point x="203" y="136"/>
      <point x="188" y="72"/>
    </contour>
  </outline>
</glyph>
<glyph name="six.dnom" format="2">
  <advance width="400"/>
  <outline>
    <contour>
      <point x="343" y="375" type="line"/>
      <point x="331" y="374" type="line"/>
      <point x="315" y="383"/>
      <point x="297" y="388"/>
      <point x="278" y="388" type="curve" smooth="yes"/>
      <point x="170" y="388"/>
      <point x="128" y="285"/>
      <point x="123" y="202" type="curve"/>
      <point x="128" y="199" type="line"/>
      <point x="160" y="218"/>
      <point x="198" y="232"/>
      <point x="238" y="232" type="curve" smooth="yes"/>
      <point x="308" y="232"/>
      <point x="352" y="183"/>
      <point x="352" y="130" type="curve" smooth="yes"/>
      <point x="352" y="58"/>
      <point x="265" y="-7"/>
      <point x="178" y="-7" type="curve" smooth="yes"/>
      <point x="84" y="-7"/>
      <point x="48" y="85"/>
      <point x="48" y="152" type="curve" smooth="yes"/>
      <point x="48" y="279"/>
      <point x="163" y="422"/>
      <point x="319" y="422" type="curve" smooth="yes"/>
      <point x="327" y="422"/>
      <point x="349" y="418"/>
      <point x="359" y="414" type="curve"/>
    </contour>
    <contour>
      <point x="124" y="172" type="curve"/>
      <point x="128" y="116"/>
      <point x="141" y="23"/>
      <point x="218" y="23" type="curve" smooth="yes"/>
      <point x="264" y="23"/>
      <point x="293" y="64"/>
      <point x="293" y="99" type="curve" smooth="yes"/>
      <point x="293" y="147"/>
      <point x="259" y="192"/>
      <point x="195" y="192" type="curve" smooth="yes"/>
      <point x="170" y="192"/>
      <point x="146" y="182"/>
    </contour>
  </outline>
</glyph>
<glyph name="three.dnom" format="2">
  <advance width="400"/>
  <outline>
    <contour>
      <point x="203" y="235" type="curve"/>
      <point x="203" y="230" type="line"/>
      <point x="293" y="223"/>
      <point x="344" y="192"/>
      <point x="344" y="134" type="curve" smooth="yes"/>
      <point x="344" y="45"/>
      <point x="249" y="-5"/>
      <point x="157" y="-5" type="curve" smooth="yes"/>
      <point x="113" y="-5"/>
      <point x="68" y="7"/>
      <point x="35" y="32" type="curve"/>
      <point x="73" y="96" type="line"/>
      <point x="85" y="95" type="line"/>
      <point x="95" y="62"/>
      <point x="119" y="19"/>
      <point x="161" y="19" type="curve" smooth="yes"/>
      <point x="232" y="19"/>
      <point x="260" y="69"/>
      <point x="260" y="121" type="curve" smooth="yes"/>
      <point x="260" y="200"/>
      <point x="182" y="215"/>
      <point x="106" y="215" type="curve"/>
      <point x="106" y="233" type="line"/>
      <point x="161" y="236"/>
      <point x="240" y="259"/>
      <point x="240" y="325" type="curve" smooth="yes"/>
      <point x="240" y="362"/>
      <point x="210" y="386"/>
      <point x="169" y="386" type="curve" smooth="yes"/>
      <point x="137" y="386"/>
      <point x="105" y="370"/>
      <point x="77" y="353" type="curve"/>
      <point x="66" y="368" type="line"/>
      <point x="107" y="396"/>
      <point x="159" y="425"/>
      <point x="212" y="425" type="curve" smooth="yes"/>
      <point x="264" y="425"/>
      <point x="317" y="398"/>
      <point x="317" y="349" type="curve" smooth="yes"/>
      <point x="317" y="293"/>
      <point x="264" y="255"/>
    </contour>
  </outline>
</glyph>
<glyph name="two.dnom" format="2">
  <advance width="400"/>
  <outline>
    <contour>
      <point x="365" y="65" type="line"/>
      <point x="346" y="3" type="line"/>
      <point x="29" y="3" type="line"/>
      <point x="29" y="15" type="line"/>
      <point x="93" y="64"/>
      <point x="151" y="116"/>
      <point x="200" y="176" type="curve" smooth="yes"/>
      <point x="230" y="213"/>
      <point x="254" y="256"/>
      <point x="254" y="302" type="curve" smooth="yes"/>
      <point x="254" y="340"/>
      <point x="237" y="385"/>
      <point x="178" y="385" type="curve" smooth="yes"/>
      <point x="143" y="385"/>
      <point x="109" y="365"/>
      <point x="80" y="348" type="curve"/>
      <point x="69" y="362" type="line"/>
      <point x="110" y="396"/>
      <point x="166" y="429"/>
      <point x="224" y="429" type="curve" smooth="yes"/>
      <point x="284" y="429"/>
      <point x="340" y="397"/>
      <point x="340" y="341" type="curve" smooth="yes"/>
      <point x="340" y="244"/>
      <point x="217" y="154"/>
      <point x="141" y="71" type="curve" smooth="yes"/>
      <point x="140" y="70"/>
      <point x="140" y="69"/>
      <point x="140" y="68" type="curve" smooth="yes"/>
      <point x="140" y="67"/>
      <point x="142" y="65"/>
      <point x="144" y="65" type="curve" smooth="yes"/>
    </contour>
  </outline>
</glyph>
<glyph name="zero.dnom" format="2">
  <advance width="400"/>
  <outline>
    <contour>
      <point x="232" y="430" type="curve"/>
      <point x="249" y="423"/>
      <point x="269" y="409"/>
      <point x="280" y="400" type="curve" smooth="yes"/>
      <point x="342" y="350"/>
      <point x="355" y="277"/>
      <point x="355" y="206" type="curve" smooth="yes"/>
      <point x="355" y="146"/>
      <point x="339" y="81"/>
      <point x="280" y="28" type="curve" smooth="yes"/>
      <point x="254" y="4"/>
      <point x="218" y="-9"/>
      <point x="184" y="-9" type="curve" smooth="yes"/>
      <point x="77" y="-9"/>
      <point x="46" y="96"/>
      <point x="46" y="171" type="curve" smooth="yes"/>
      <point x="46" y="246"/>
      <point x="67" y="324"/>
      <point x="133" y="376" type="curve" smooth="yes"/>
      <point x="162" y="399"/>
      <point x="197" y="422"/>
    </contour>
    <contour>
      <point x="187" y="379" type="curve"/>
      <point x="126" y="350"/>
      <point x="106" y="288"/>
      <point x="106" y="230" type="curve" smooth="yes"/>
      <point x="106" y="196"/>
      <point x="110" y="163"/>
      <point x="123" y="131" type="curve" smooth="yes"/>
      <point x="139" y="90"/>
      <point x="173" y="40"/>
      <point x="223" y="40" type="curve" smooth="yes"/>
      <point x="275" y="40"/>
      <point x="304" y="82"/>
      <point x="304" y="164" type="curve" smooth="yes"/>
      <point x="304" y="220"/>
      <point x="295" y="278"/>
      <point x="258" y="326" type="curve" smooth="yes"/>
      <point x="241" y="348"/>
      <point x="213" y="372"/>
    </contour>
  </outline>
</glyph>
